<?xml version="1.0" encoding="UTF-8" standalone="no"?><svg xmlns="http://www.w3.org/2000/svg" xmlns:xlink="http://www.w3.org/1999/xlink" clip-rule="evenodd" stroke-miterlimit="10" viewBox="0 0 1680 1050"><desc>SVG generated by Keynote</desc><defs><linearGradient id="gradSh1.38" x1="0.0" y1="0.0" x2="100.0" y2="0.0" gradientUnits="userSpaceOnUse" gradientTransform="matrix(0.00, -9.40, -15.23, 0.00, 839.5, 995.0)"><stop offset="0.00000" stop-color="#FFFFFF"></stop><stop offset="0.01246" stop-color="#FEFEFE"></stop><stop offset="1.00000" stop-color="#D6D6D6"></stop></linearGradient></defs><g transform="matrix(1.00, 0.00, -0.00, -1.00, 0.0, 1050.0)"><path d="M 0.0 1050.0 L 1680.0 1050.0 L 1680.0 0.0 L 0.0 0.0 Z M 0.0 1050.0 " fill="#D3CCC3"></path><image xlink:href="../../8109EDB8-06C5-4C2E-86C8-B44BC6D319A9/assets/DDDAF652E522831AA96336DA7986376C.png" width="1549.00" height="966.00" transform="matrix(1.00, 0.00, -0.00, -1.00, 65.0, 1005.0)" opacity="0.60"></image><g><clipPath id="clip0x7f86f6a89630"><path d="M 79.0 71.0 L 79.0 979.0 C 79.0 987.3 85.7 994.0 94.0 994.0 L 1585.0 994.0 C 1593.3 994.0 1600.0 987.3 1600.0 979.0 L 1600.0 71.0 C 1600.0 62.7 1593.3 56.0 1585.0 56.0 L 94.0 56.0 C 85.7 56.0 79.0 62.7 79.0 71.0 Z M 79.0 71.0 "></path></clipPath><g clip-path="url(#clip0x7f86f6a89630)"><path d="M 79.0 71.0 L 79.0 979.0 C 79.0 987.3 85.7 994.0 94.0 994.0 L 1585.0 994.0 C 1593.3 994.0 1600.0 987.3 1600.0 979.0 L 1600.0 71.0 C 1600.0 62.7 1593.3 56.0 1585.0 56.0 L 94.0 56.0 C 85.7 56.0 79.0 62.7 79.0 71.0 Z M 79.0 71.0 " fill="url(#gradSh1.38)"></path></g></g><path d="M 1600.0 815.0 L 1631.0 815.0 L 1600.0 748.0 Z M 1600.0 815.0 " fill="#054009"></path><image xlink:href="../../8109EDB8-06C5-4C2E-86C8-B44BC6D319A9/assets/026CA60A95B90F09877A7E01B4424555.png" width="88.00" height="127.00" transform="matrix(1.00, 0.00, -0.00, -1.00, 1548.1, 932.2)" opacity="0.32"></image><path d="M 1551.0 815.3 L 1551.0 927.7 C 1551.0 929.5 1552.5 931.0 1554.3 931.0 L 1627.7 931.0 C 1629.5 931.0 1631.0 929.5 1631.0 927.7 L 1631.0 815.3 C 1631.0 813.5 1629.5 812.0 1627.7 812.0 L 1554.3 812.0 C 1552.5 812.0 1551.0 813.5 1551.0 815.3 Z M 1551.0 815.3 " fill="#0B5C18"></path><text xml:space="preserve" font-family="BankGothic-Medium,Bank Gothic" font-size="24.0" fill="#FFFFFF" transform="matrix(1.00, 0.00, -0.00, -1.00, 1582.5, 901.4)">D</text><text xml:space="preserve" font-family="BankGothic-Medium,Bank Gothic" font-size="24.0" fill="#FFFFFF" transform="matrix(1.00, 0.00, -0.00, -1.00, 1602.9, 901.4)"> </text><text xml:space="preserve" font-family="BankGothic-Medium,Bank Gothic" font-size="24.0" fill="#FFFFFF" transform="matrix(1.00, 0.00, -0.00, -1.00, 1582.5, 876.4)">W</text><text xml:space="preserve" font-family="BankGothic-Medium,Bank Gothic" font-size="24.0" fill="#FFFFFF" transform="matrix(1.00, 0.00, -0.00, -1.00, 1604.8, 876.4)"> </text><text xml:space="preserve" font-family="BankGothic-Medium,Bank Gothic" font-size="24.0" fill="#FFFFFF" transform="matrix(1.00, 0.00, -0.00, -1.00, 1582.5, 851.4)">D</text><text xml:space="preserve" font-family="BankGothic-Medium,Bank Gothic" font-size="24.0" fill="#FFFFFF" transform="matrix(1.00, 0.00, -0.00, -1.00, 1602.9, 851.4)"> </text><text xml:space="preserve" font-family="BankGothic-Medium,Bank Gothic" font-size="24.0" fill="#FFFFFF" transform="matrix(1.00, 0.00, -0.00, -1.00, 1582.5, 826.4)">C</text><text xml:space="preserve" font-family="BankGothic-Medium,Bank Gothic" font-size="104.0" fill="#05510A" transform="matrix(1.00, 0.00, -0.00, -1.00, 402.9, 810.5)">R</text><text xml:space="preserve" font-family="BankGothic-Medium,Bank Gothic" font-size="104.0" fill="#05510A" transform="matrix(1.00, 0.00, -0.00, -1.00, 486.3, 810.5)">e</text><text xml:space="preserve" font-family="BankGothic-Medium,Bank Gothic" font-size="104.0" fill="#05510A" transform="matrix(1.00, 0.00, -0.00, -1.00, 549.5, 810.5)">l</text><text xml:space="preserve" font-family="BankGothic-Medium,Bank Gothic" font-size="104.0" fill="#05510A" transform="matrix(1.00, 0.00, -0.00, -1.00, 606.9, 810.5)">e</text><text xml:space="preserve" font-family="BankGothic-Medium,Bank Gothic" font-size="104.0" fill="#05510A" transform="matrix(1.00, 0.00, -0.00, -1.00, 670.2, 810.5)">v</text><text xml:space="preserve" font-family="BankGothic-Medium,Bank Gothic" font-size="104.0" fill="#05510A" transform="matrix(1.00, 0.00, -0.00, -1.00, 735.9, 810.5)">a</text><text xml:space="preserve" font-family="BankGothic-Medium,Bank Gothic" font-size="104.0" fill="#05510A" transform="matrix(1.00, 0.00, -0.00, -1.00, 803.1, 810.5)">n</text><text xml:space="preserve" font-family="BankGothic-Medium,Bank Gothic" font-size="104.0" fill="#05510A" transform="matrix(1.00, 0.00, -0.00, -1.00, 877.1, 810.5)">t</text><text xml:space="preserve" font-family="BankGothic-Medium,Bank Gothic" font-size="104.0" fill="#05510A" transform="matrix(1.00, 0.00, -0.00, -1.00, 938.5, 810.5)"> </text><text xml:space="preserve" font-family="BankGothic-Medium,Bank Gothic" font-size="104.0" fill="#05510A" transform="matrix(1.00, 0.00, -0.00, -1.00, 978.7, 810.5)">D</text><text xml:space="preserve" font-family="BankGothic-Medium,Bank Gothic" font-size="104.0" fill="#05510A" transform="matrix(1.00, 0.00, -0.00, -1.00, 1066.8, 810.5)">o</text><text xml:space="preserve" font-family="BankGothic-Medium,Bank Gothic" font-size="104.0" fill="#05510A" transform="matrix(1.00, 0.00, -0.00, -1.00, 1141.2, 810.5)">c</text><text xml:space="preserve" font-family="BankGothic-Medium,Bank Gothic" font-size="104.0" fill="#05510A" transform="matrix(1.00, 0.00, -0.00, -1.00, 1208.2, 810.5)">s</text><text xml:space="preserve" font-family="BankGothic-Light,Bank Gothic" font-size="75.4" fill="#C7C0B7" transform="matrix(1.00, 0.00, -0.00, -1.00, 193.0, 665.3)">•</text><text xml:space="preserve" font-family="BankGothic-Light,Bank Gothic" font-size="52.0" fill="#504460" transform="matrix(1.00, 0.00, -0.00, -1.00, 237.5, 677.3)">I</text><text xml:space="preserve" font-family="BankGothic-Light,Bank Gothic" font-size="52.0" fill="#504460" transform="matrix(1.00, 0.00, -0.00, -1.00, 255.9, 677.3)">E</text><text xml:space="preserve" font-family="BankGothic-Light,Bank Gothic" font-size="52.0" fill="#504460" transform="matrix(1.00, 0.00, -0.00, -1.00, 292.6, 677.3)">T</text><text xml:space="preserve" font-family="BankGothic-Light,Bank Gothic" font-size="52.0" fill="#504460" transform="matrix(1.00, 0.00, -0.00, -1.00, 322.9, 677.3)">F</text><text xml:space="preserve" font-family="BankGothic-Light,Bank Gothic" font-size="52.0" fill="#504460" transform="matrix(1.00, 0.00, -0.00, -1.00, 356.0, 677.3)"> </text><text xml:space="preserve" font-family="BankGothic-Light,Bank Gothic" font-size="52.0" fill="#504460" transform="matrix(1.00, 0.00, -0.00, -1.00, 375.4, 677.3)">R</text><text xml:space="preserve" font-family="BankGothic-Light,Bank Gothic" font-size="52.0" fill="#504460" transform="matrix(1.00, 0.00, -0.00, -1.00, 415.1, 677.3)">F</text><text xml:space="preserve" font-family="BankGothic-Light,Bank Gothic" font-size="52.0" fill="#504460" transform="matrix(1.00, 0.00, -0.00, -1.00, 448.2, 677.3)">C</text><text xml:space="preserve" font-family="BankGothic-Light,Bank Gothic" font-size="52.0" fill="#504460" transform="matrix(1.00, 0.00, -0.00, -1.00, 487.2, 677.3)"> </text><text xml:space="preserve" font-family="BankGothic-Light,Bank Gothic" font-size="52.0" fill="#504460" transform="matrix(1.00, 0.00, -0.00, -1.00, 506.6, 677.3)">7</text><text xml:space="preserve" font-family="BankGothic-Light,Bank Gothic" font-size="52.0" fill="#504460" transform="matrix(1.00, 0.00, -0.00, -1.00, 545.5, 677.3)">1</text><text xml:space="preserve" font-family="BankGothic-Light,Bank Gothic" font-size="52.0" fill="#504460" transform="matrix(1.00, 0.00, -0.00, -1.00, 584.4, 677.3)">5</text><text xml:space="preserve" font-family="BankGothic-Light,Bank Gothic" font-size="52.0" fill="#504460" transform="matrix(1.00, 0.00, -0.00, -1.00, 623.3, 677.3)">9</text><text xml:space="preserve" font-family="BankGothic-Light,Bank Gothic" font-size="52.0" fill="#504460" transform="matrix(1.00, 0.00, -0.00, -1.00, 662.2, 677.3)"> </text><text xml:space="preserve" font-family="LucidaGrande,Lucida Grande" font-size="52.0" fill="#504460" transform="matrix(1.00, 0.00, -0.00, -1.00, 681.7, 677.3)"> </text><text xml:space="preserve" font-family="Consolas,Consolas" font-size="52.0" fill="#504460" transform="matrix(1.00, 0.00, -0.00, -1.00, 237.0, 626.3)">h</text><text xml:space="preserve" font-family="Consolas,Consolas" font-size="52.0" fill="#504460" transform="matrix(1.00, 0.00, -0.00, -1.00, 265.6, 626.3)">t</text><text xml:space="preserve" font-family="Consolas,Consolas" font-size="52.0" fill="#504460" transform="matrix(1.00, 0.00, -0.00, -1.00, 294.2, 626.3)">t</text><text xml:space="preserve" font-family="Consolas,Consolas" font-size="52.0" fill="#504460" transform="matrix(1.00, 0.00, -0.00, -1.00, 322.7, 626.3)">p</text><text xml:space="preserve" font-family="Consolas,Consolas" font-size="52.0" fill="#504460" transform="matrix(1.00, 0.00, -0.00, -1.00, 351.3, 626.3)">:</text><text xml:space="preserve" font-family="Consolas,Consolas" font-size="52.0" fill="#504460" transform="matrix(1.00, 0.00, -0.00, -1.00, 379.9, 626.3)">/</text><text xml:space="preserve" font-family="Consolas,Consolas" font-size="52.0" fill="#504460" transform="matrix(1.00, 0.00, -0.00, -1.00, 408.5, 626.3)">/</text><text xml:space="preserve" font-family="Consolas,Consolas" font-size="52.0" fill="#504460" transform="matrix(1.00, 0.00, -0.00, -1.00, 437.1, 626.3)">r</text><text xml:space="preserve" font-family="Consolas,Consolas" font-size="52.0" fill="#504460" transform="matrix(1.00, 0.00, -0.00, -1.00, 465.6, 626.3)">f</text><text xml:space="preserve" font-family="Consolas,Consolas" font-size="52.0" fill="#504460" transform="matrix(1.00, 0.00, -0.00, -1.00, 494.2, 626.3)">c</text><text xml:space="preserve" font-family="Consolas,Consolas" font-size="52.0" fill="#504460" transform="matrix(1.00, 0.00, -0.00, -1.00, 522.8, 626.3)">7</text><text xml:space="preserve" font-family="Consolas,Consolas" font-size="52.0" fill="#504460" transform="matrix(1.00, 0.00, -0.00, -1.00, 551.4, 626.3)">1</text><text xml:space="preserve" font-family="Consolas,Consolas" font-size="52.0" fill="#504460" transform="matrix(1.00, 0.00, -0.00, -1.00, 580.0, 626.3)">5</text><text xml:space="preserve" font-family="Consolas,Consolas" font-size="52.0" fill="#504460" transform="matrix(1.00, 0.00, -0.00, -1.00, 608.5, 626.3)">9</text><text xml:space="preserve" font-family="Consolas,Consolas" font-size="52.0" fill="#504460" transform="matrix(1.00, 0.00, -0.00, -1.00, 637.1, 626.3)">.</text><text xml:space="preserve" font-family="Consolas,Consolas" font-size="52.0" fill="#504460" transform="matrix(1.00, 0.00, -0.00, -1.00, 665.7, 626.3)">n</text><text xml:space="preserve" font-family="Consolas,Consolas" font-size="52.0" fill="#504460" transform="matrix(1.00, 0.00, -0.00, -1.00, 694.3, 626.3)">e</text><text xml:space="preserve" font-family="Consolas,Consolas" font-size="52.0" fill="#504460" transform="matrix(1.00, 0.00, -0.00, -1.00, 722.9, 626.3)">t</text><text xml:space="preserve" font-family="Consolas,Consolas" font-size="52.0" fill="#504460" transform="matrix(1.00, 0.00, -0.00, -1.00, 751.4, 626.3)">/</text><text xml:space="preserve" font-family="Consolas,Consolas" font-size="52.0" fill="#504460" transform="matrix(1.00, 0.00, -0.00, -1.00, 780.0, 626.3)">r</text><text xml:space="preserve" font-family="Consolas,Consolas" font-size="52.0" fill="#504460" transform="matrix(1.00, 0.00, -0.00, -1.00, 808.6, 626.3)">f</text><text xml:space="preserve" font-family="Consolas,Consolas" font-size="52.0" fill="#504460" transform="matrix(1.00, 0.00, -0.00, -1.00, 837.2, 626.3)">c</text><text xml:space="preserve" font-family="Consolas,Consolas" font-size="52.0" fill="#504460" transform="matrix(1.00, 0.00, -0.00, -1.00, 865.7, 626.3)">7</text><text xml:space="preserve" font-family="Consolas,Consolas" font-size="52.0" fill="#504460" transform="matrix(1.00, 0.00, -0.00, -1.00, 894.3, 626.3)">1</text><text xml:space="preserve" font-family="Consolas,Consolas" font-size="52.0" fill="#504460" transform="matrix(1.00, 0.00, -0.00, -1.00, 922.9, 626.3)">5</text><text xml:space="preserve" font-family="Consolas,Consolas" font-size="52.0" fill="#504460" transform="matrix(1.00, 0.00, -0.00, -1.00, 951.5, 626.3)">9</text><text xml:space="preserve" font-family="BankGothic-Light,Bank Gothic" font-size="52.0" fill="#504460" transform="matrix(1.00, 0.00, -0.00, -1.00, 980.3, 626.3)"> </text><g><clipPath id="clip0x7f86f6b7e2e0"><path d="M 236.0 616.7 L 980.3 616.7 L 980.3 622.3 L 236.0 622.3 Z M 236.0 616.7 "></path></clipPath><g clip-path="url(#clip0x7f86f6b7e2e0)"><path d="M 73.0 102.5 L 816.3 102.5 " fill="none" stroke="#504460" stroke-width="3.66" transform="matrix(1.00, 0.00, 0.00, -1.00, 164.0, 722.0)"></path></g></g><text xml:space="preserve" font-family="BankGothic-Light,Bank Gothic" font-size="75.4" fill="#C7C0B7" transform="matrix(1.00, 0.00, -0.00, -1.00, 193.0, 518.3)">•</text><text xml:space="preserve" font-family="BankGothic-Light,Bank Gothic" font-size="52.0" fill="#504460" transform="matrix(1.00, 0.00, -0.00, -1.00, 237.5, 530.3)">P</text><text xml:space="preserve" font-family="BankGothic-Light,Bank Gothic" font-size="52.0" fill="#504460" transform="matrix(1.00, 0.00, -0.00, -1.00, 275.8, 530.3)">o</text><text xml:space="preserve" font-family="BankGothic-Light,Bank Gothic" font-size="52.0" fill="#504460" transform="matrix(1.00, 0.00, -0.00, -1.00, 311.6, 530.3)">s</text><text xml:space="preserve" font-family="BankGothic-Light,Bank Gothic" font-size="52.0" fill="#504460" transform="matrix(1.00, 0.00, -0.00, -1.00, 344.8, 530.3)">t</text><text xml:space="preserve" font-family="BankGothic-Light,Bank Gothic" font-size="52.0" fill="#504460" transform="matrix(1.00, 0.00, -0.00, -1.00, 372.1, 530.3)">g</text><text xml:space="preserve" font-family="BankGothic-Light,Bank Gothic" font-size="52.0" fill="#504460" transform="matrix(1.00, 0.00, -0.00, -1.00, 406.5, 530.3)">r</text><text xml:space="preserve" font-family="BankGothic-Light,Bank Gothic" font-size="52.0" fill="#504460" transform="matrix(1.00, 0.00, -0.00, -1.00, 438.4, 530.3)">e</text><text xml:space="preserve" font-family="BankGothic-Light,Bank Gothic" font-size="52.0" fill="#504460" transform="matrix(1.00, 0.00, -0.00, -1.00, 468.6, 530.3)">S</text><text xml:space="preserve" font-family="BankGothic-Light,Bank Gothic" font-size="52.0" fill="#504460" transform="matrix(1.00, 0.00, -0.00, -1.00, 509.2, 530.3)">Q</text><text xml:space="preserve" font-family="BankGothic-Light,Bank Gothic" font-size="52.0" fill="#504460" transform="matrix(1.00, 0.00, -0.00, -1.00, 553.5, 530.3)">L</text><text xml:space="preserve" font-family="BankGothic-Light,Bank Gothic" font-size="52.0" fill="#504460" transform="matrix(1.00, 0.00, -0.00, -1.00, 587.5, 530.3)"> </text><text xml:space="preserve" font-family="BankGothic-Light,Bank Gothic" font-size="52.0" fill="#504460" transform="matrix(1.00, 0.00, -0.00, -1.00, 606.9, 530.3)">9</text><text xml:space="preserve" font-family="BankGothic-Light,Bank Gothic" font-size="52.0" fill="#504460" transform="matrix(1.00, 0.00, -0.00, -1.00, 645.8, 530.3)">.</text><text xml:space="preserve" font-family="BankGothic-Light,Bank Gothic" font-size="52.0" fill="#504460" transform="matrix(1.00, 0.00, -0.00, -1.00, 665.3, 530.3)">4</text><text xml:space="preserve" font-family="BankGothic-Light,Bank Gothic" font-size="52.0" fill="#504460" transform="matrix(1.00, 0.00, -0.00, -1.00, 704.2, 530.3)"> </text><text xml:space="preserve" font-family="BankGothic-Light,Bank Gothic" font-size="52.0" fill="#504460" transform="matrix(1.00, 0.00, -0.00, -1.00, 723.6, 530.3)">D</text><text xml:space="preserve" font-family="BankGothic-Light,Bank Gothic" font-size="52.0" fill="#504460" transform="matrix(1.00, 0.00, -0.00, -1.00, 765.6, 530.3)">o</text><text xml:space="preserve" font-family="BankGothic-Light,Bank Gothic" font-size="52.0" fill="#504460" transform="matrix(1.00, 0.00, -0.00, -1.00, 801.5, 530.3)">c</text><text xml:space="preserve" font-family="BankGothic-Light,Bank Gothic" font-size="52.0" fill="#504460" transform="matrix(1.00, 0.00, -0.00, -1.00, 833.6, 530.3)">u</text><text xml:space="preserve" font-family="BankGothic-Light,Bank Gothic" font-size="52.0" fill="#504460" transform="matrix(1.00, 0.00, -0.00, -1.00, 868.2, 530.3)">m</text><text xml:space="preserve" font-family="BankGothic-Light,Bank Gothic" font-size="52.0" fill="#504460" transform="matrix(1.00, 0.00, -0.00, -1.00, 906.8, 530.3)">e</text><text xml:space="preserve" font-family="BankGothic-Light,Bank Gothic" font-size="52.0" fill="#504460" transform="matrix(1.00, 0.00, -0.00, -1.00, 937.0, 530.3)">n</text><text xml:space="preserve" font-family="BankGothic-Light,Bank Gothic" font-size="52.0" fill="#504460" transform="matrix(1.00, 0.00, -0.00, -1.00, 972.7, 530.3)">t</text><text xml:space="preserve" font-family="BankGothic-Light,Bank Gothic" font-size="52.0" fill="#504460" transform="matrix(1.00, 0.00, -0.00, -1.00, 1000.0, 530.3)">a</text><text xml:space="preserve" font-family="BankGothic-Light,Bank Gothic" font-size="52.0" fill="#504460" transform="matrix(1.00, 0.00, -0.00, -1.00, 1032.6, 530.3)">t</text><text xml:space="preserve" font-family="BankGothic-Light,Bank Gothic" font-size="52.0" fill="#504460" transform="matrix(1.00, 0.00, -0.00, -1.00, 1059.9, 530.3)">i</text><text xml:space="preserve" font-family="BankGothic-Light,Bank Gothic" font-size="52.0" fill="#504460" transform="matrix(1.00, 0.00, -0.00, -1.00, 1074.1, 530.3)">o</text><text xml:space="preserve" font-family="BankGothic-Light,Bank Gothic" font-size="52.0" fill="#504460" transform="matrix(1.00, 0.00, -0.00, -1.00, 1109.9, 530.3)">n</text><text xml:space="preserve" font-family="BankGothic-Light,Bank Gothic" font-size="52.0" fill="#504460" transform="matrix(1.00, 0.00, -0.00, -1.00, 1145.6, 530.3)"> </text><text xml:space="preserve" font-family="BankGothic-Light,Bank Gothic" font-size="75.4" fill="#C7C0B7" transform="matrix(1.00, 0.00, -0.00, -1.00, 228.0, 432.3)">•</text><text xml:space="preserve" font-family="BankGothic-Light,Bank Gothic" font-size="52.0" fill="#504460" transform="matrix(1.00, 0.00, -0.00, -1.00, 272.5, 444.3)">J</text><text xml:space="preserve" font-family="BankGothic-Light,Bank Gothic" font-size="52.0" fill="#504460" transform="matrix(1.00, 0.00, -0.00, -1.00, 307.6, 444.3)">S</text><text xml:space="preserve" font-family="BankGothic-Light,Bank Gothic" font-size="52.0" fill="#504460" transform="matrix(1.00, 0.00, -0.00, -1.00, 348.2, 444.3)">O</text><text xml:space="preserve" font-family="BankGothic-Light,Bank Gothic" font-size="52.0" fill="#504460" transform="matrix(1.00, 0.00, -0.00, -1.00, 392.6, 444.3)">N</text><text xml:space="preserve" font-family="BankGothic-Light,Bank Gothic" font-size="52.0" fill="#504460" transform="matrix(1.00, 0.00, -0.00, -1.00, 436.2, 444.3)"> </text><text xml:space="preserve" font-family="BankGothic-Light,Bank Gothic" font-size="52.0" fill="#504460" transform="matrix(1.00, 0.00, -0.00, -1.00, 455.6, 444.3)">T</text><text xml:space="preserve" font-family="BankGothic-Light,Bank Gothic" font-size="52.0" fill="#504460" transform="matrix(1.00, 0.00, -0.00, -1.00, 485.9, 444.3)">y</text><text xml:space="preserve" font-family="BankGothic-Light,Bank Gothic" font-size="52.0" fill="#504460" transform="matrix(1.00, 0.00, -0.00, -1.00, 515.2, 444.3)">p</text><text xml:space="preserve" font-family="BankGothic-Light,Bank Gothic" font-size="52.0" fill="#504460" transform="matrix(1.00, 0.00, -0.00, -1.00, 546.7, 444.3)">e</text><text xml:space="preserve" font-family="BankGothic-Light,Bank Gothic" font-size="52.0" fill="#504460" transform="matrix(1.00, 0.00, -0.00, -1.00, 576.9, 444.3)">s</text><text xml:space="preserve" font-family="LucidaGrande,Lucida Grande" font-size="52.0" fill="#504460" transform="matrix(1.00, 0.00, -0.00, -1.00, 610.1, 444.3)"> </text><text xml:space="preserve" font-family="Consolas,Consolas" font-size="52.0" fill="#504460" transform="matrix(1.00, 0.00, -0.00, -1.00, 272.0, 393.3)">h</text><text xml:space="preserve" font-family="Consolas,Consolas" font-size="52.0" fill="#504460" transform="matrix(1.00, 0.00, -0.00, -1.00, 300.6, 393.3)">t</text><text xml:space="preserve" font-family="Consolas,Consolas" font-size="52.0" fill="#504460" transform="matrix(1.00, 0.00, -0.00, -1.00, 329.2, 393.3)">t</text><text xml:space="preserve" font-family="Consolas,Consolas" font-size="52.0" fill="#504460" transform="matrix(1.00, 0.00, -0.00, -1.00, 357.7, 393.3)">p</text><text xml:space="preserve" font-family="Consolas,Consolas" font-size="52.0" fill="#504460" transform="matrix(1.00, 0.00, -0.00, -1.00, 386.3, 393.3)">:</text><text xml:space="preserve" font-family="Consolas,Consolas" font-size="52.0" fill="#504460" transform="matrix(1.00, 0.00, -0.00, -1.00, 414.9, 393.3)">/</text><text xml:space="preserve" font-family="Consolas,Consolas" font-size="52.0" fill="#504460" transform="matrix(1.00, 0.00, -0.00, -1.00, 443.5, 393.3)">/</text><text xml:space="preserve" font-family="Consolas,Consolas" font-size="52.0" fill="#504460" transform="matrix(1.00, 0.00, -0.00, -1.00, 472.1, 393.3)">w</text><text xml:space="preserve" font-family="Consolas,Consolas" font-size="52.0" fill="#504460" transform="matrix(1.00, 0.00, -0.00, -1.00, 500.6, 393.3)">w</text><text xml:space="preserve" font-family="Consolas,Consolas" font-size="52.0" fill="#504460" transform="matrix(1.00, 0.00, -0.00, -1.00, 529.2, 393.3)">w</text><text xml:space="preserve" font-family="Consolas,Consolas" font-size="52.0" fill="#504460" transform="matrix(1.00, 0.00, -0.00, -1.00, 557.8, 393.3)">.</text><text xml:space="preserve" font-family="Consolas,Consolas" font-size="52.0" fill="#504460" transform="matrix(1.00, 0.00, -0.00, -1.00, 586.4, 393.3)">p</text><text xml:space="preserve" font-family="Consolas,Consolas" font-size="52.0" fill="#504460" transform="matrix(1.00, 0.00, -0.00, -1.00, 615.0, 393.3)">o</text><text xml:space="preserve" font-family="Consolas,Consolas" font-size="52.0" fill="#504460" transform="matrix(1.00, 0.00, -0.00, -1.00, 643.5, 393.3)">s</text><text xml:space="preserve" font-family="Consolas,Consolas" font-size="52.0" fill="#504460" transform="matrix(1.00, 0.00, -0.00, -1.00, 672.1, 393.3)">t</text><text xml:space="preserve" font-family="Consolas,Consolas" font-size="52.0" fill="#504460" transform="matrix(1.00, 0.00, -0.00, -1.00, 700.7, 393.3)">g</text><text xml:space="preserve" font-family="Consolas,Consolas" font-size="52.0" fill="#504460" transform="matrix(1.00, 0.00, -0.00, -1.00, 729.3, 393.3)">r</text><text xml:space="preserve" font-family="Consolas,Consolas" font-size="52.0" fill="#504460" transform="matrix(1.00, 0.00, -0.00, -1.00, 757.9, 393.3)">e</text><text xml:space="preserve" font-family="Consolas,Consolas" font-size="52.0" fill="#504460" transform="matrix(1.00, 0.00, -0.00, -1.00, 786.4, 393.3)">s</text><text xml:space="preserve" font-family="Consolas,Consolas" font-size="52.0" fill="#504460" transform="matrix(1.00, 0.00, -0.00, -1.00, 815.0, 393.3)">q</text><text xml:space="preserve" font-family="Consolas,Consolas" font-size="52.0" fill="#504460" transform="matrix(1.00, 0.00, -0.00, -1.00, 843.6, 393.3)">l</text><text xml:space="preserve" font-family="Consolas,Consolas" font-size="52.0" fill="#504460" transform="matrix(1.00, 0.00, -0.00, -1.00, 872.2, 393.3)">.</text><text xml:space="preserve" font-family="Consolas,Consolas" font-size="52.0" fill="#504460" transform="matrix(1.00, 0.00, -0.00, -1.00, 900.7, 393.3)">o</text><text xml:space="preserve" font-family="Consolas,Consolas" font-size="52.0" fill="#504460" transform="matrix(1.00, 0.00, -0.00, -1.00, 929.3, 393.3)">r</text><text xml:space="preserve" font-family="Consolas,Consolas" font-size="52.0" fill="#504460" transform="matrix(1.00, 0.00, -0.00, -1.00, 957.9, 393.3)">g</text><text xml:space="preserve" font-family="Consolas,Consolas" font-size="52.0" fill="#504460" transform="matrix(1.00, 0.00, -0.00, -1.00, 986.5, 393.3)">/</text><text xml:space="preserve" font-family="Consolas,Consolas" font-size="52.0" fill="#504460" transform="matrix(1.00, 0.00, -0.00, -1.00, 1015.1, 393.3)">d</text><text xml:space="preserve" font-family="Consolas,Consolas" font-size="52.0" fill="#504460" transform="matrix(1.00, 0.00, -0.00, -1.00, 1043.6, 393.3)">o</text><text xml:space="preserve" font-family="Consolas,Consolas" font-size="52.0" fill="#504460" transform="matrix(1.00, 0.00, -0.00, -1.00, 1072.2, 393.3)">c</text><text xml:space="preserve" font-family="Consolas,Consolas" font-size="52.0" fill="#504460" transform="matrix(1.00, 0.00, -0.00, -1.00, 1100.8, 393.3)">s</text><text xml:space="preserve" font-family="Consolas,Consolas" font-size="52.0" fill="#504460" transform="matrix(1.00, 0.00, -0.00, -1.00, 1129.4, 393.3)">/</text><text xml:space="preserve" font-family="Consolas,Consolas" font-size="52.0" fill="#504460" transform="matrix(1.00, 0.00, -0.00, -1.00, 1158.0, 393.3)">9</text><text xml:space="preserve" font-family="Consolas,Consolas" font-size="52.0" fill="#504460" transform="matrix(1.00, 0.00, -0.00, -1.00, 1186.5, 393.3)">.</text><text xml:space="preserve" font-family="Consolas,Consolas" font-size="52.0" fill="#504460" transform="matrix(1.00, 0.00, -0.00, -1.00, 1215.1, 393.3)">4</text><text xml:space="preserve" font-family="Consolas,Consolas" font-size="52.0" fill="#504460" transform="matrix(1.00, 0.00, -0.00, -1.00, 1243.7, 393.3)">/</text><g><clipPath id="clip0x7f86f6b8ffa0"><path d="M 271.0 383.7 L 1272.6 383.7 L 1272.6 389.3 L 271.0 389.3 Z M 271.0 383.7 "></path></clipPath><g clip-path="url(#clip0x7f86f6b8ffa0)"><path d="M 108.0 335.5 L 1108.6 335.5 " fill="none" stroke="#504460" stroke-width="3.66" transform="matrix(1.00, 0.00, 0.00, -1.00, 164.0, 722.0)"></path></g></g><text xml:space="preserve" font-family="Consolas,Consolas" font-size="52.0" fill="#504460" transform="matrix(1.00, 0.00, -0.00, -1.00, 272.0, 332.3)">i</text><text xml:space="preserve" font-family="Consolas,Consolas" font-size="52.0" fill="#504460" transform="matrix(1.00, 0.00, -0.00, -1.00, 300.6, 332.3)">n</text><text xml:space="preserve" font-family="Consolas,Consolas" font-size="52.0" fill="#504460" transform="matrix(1.00, 0.00, -0.00, -1.00, 329.2, 332.3)">t</text><text xml:space="preserve" font-family="Consolas,Consolas" font-size="52.0" fill="#504460" transform="matrix(1.00, 0.00, -0.00, -1.00, 357.7, 332.3)">e</text><text xml:space="preserve" font-family="Consolas,Consolas" font-size="52.0" fill="#504460" transform="matrix(1.00, 0.00, -0.00, -1.00, 386.3, 332.3)">r</text><text xml:space="preserve" font-family="Consolas,Consolas" font-size="52.0" fill="#504460" transform="matrix(1.00, 0.00, -0.00, -1.00, 414.9, 332.3)">a</text><text xml:space="preserve" font-family="Consolas,Consolas" font-size="52.0" fill="#504460" transform="matrix(1.00, 0.00, -0.00, -1.00, 443.5, 332.3)">c</text><text xml:space="preserve" font-family="Consolas,Consolas" font-size="52.0" fill="#504460" transform="matrix(1.00, 0.00, -0.00, -1.00, 472.1, 332.3)">t</text><text xml:space="preserve" font-family="Consolas,Consolas" font-size="52.0" fill="#504460" transform="matrix(1.00, 0.00, -0.00, -1.00, 500.6, 332.3)">i</text><text xml:space="preserve" font-family="Consolas,Consolas" font-size="52.0" fill="#504460" transform="matrix(1.00, 0.00, -0.00, -1.00, 529.2, 332.3)">v</text><text xml:space="preserve" font-family="Consolas,Consolas" font-size="52.0" fill="#504460" transform="matrix(1.00, 0.00, -0.00, -1.00, 557.8, 332.3)">e</text><text xml:space="preserve" font-family="Consolas,Consolas" font-size="52.0" fill="#504460" transform="matrix(1.00, 0.00, -0.00, -1.00, 586.4, 332.3)">/</text><text xml:space="preserve" font-family="Consolas,Consolas" font-size="52.0" fill="#504460" transform="matrix(1.00, 0.00, -0.00, -1.00, 615.0, 332.3)">d</text><text xml:space="preserve" font-family="Consolas,Consolas" font-size="52.0" fill="#504460" transform="matrix(1.00, 0.00, -0.00, -1.00, 643.5, 332.3)">a</text><text xml:space="preserve" font-family="Consolas,Consolas" font-size="52.0" fill="#504460" transform="matrix(1.00, 0.00, -0.00, -1.00, 672.1, 332.3)">t</text><text xml:space="preserve" font-family="Consolas,Consolas" font-size="52.0" fill="#504460" transform="matrix(1.00, 0.00, -0.00, -1.00, 700.7, 332.3)">a</text><text xml:space="preserve" font-family="Consolas,Consolas" font-size="52.0" fill="#504460" transform="matrix(1.00, 0.00, -0.00, -1.00, 729.3, 332.3)">t</text><text xml:space="preserve" font-family="Consolas,Consolas" font-size="52.0" fill="#504460" transform="matrix(1.00, 0.00, -0.00, -1.00, 757.9, 332.3)">y</text><text xml:space="preserve" font-family="Consolas,Consolas" font-size="52.0" fill="#504460" transform="matrix(1.00, 0.00, -0.00, -1.00, 786.4, 332.3)">p</text><text xml:space="preserve" font-family="Consolas,Consolas" font-size="52.0" fill="#504460" transform="matrix(1.00, 0.00, -0.00, -1.00, 815.0, 332.3)">e</text><text xml:space="preserve" font-family="Consolas,Consolas" font-size="52.0" fill="#504460" transform="matrix(1.00, 0.00, -0.00, -1.00, 843.6, 332.3)">-</text><text xml:space="preserve" font-family="Consolas,Consolas" font-size="52.0" fill="#504460" transform="matrix(1.00, 0.00, -0.00, -1.00, 872.2, 332.3)">­</text><text xml:space="preserve" font-family="Consolas,Consolas" font-size="52.0" fill="#504460" transform="matrix(1.00, 0.00, -0.00, -1.00, 872.2, 332.3)">‐</text><text xml:space="preserve" font-family="Consolas,Consolas" font-size="52.0" fill="#504460" transform="matrix(1.00, 0.00, -0.00, -1.00, 900.7, 332.3)">j</text><text xml:space="preserve" font-family="Consolas,Consolas" font-size="52.0" fill="#504460" transform="matrix(1.00, 0.00, -0.00, -1.00, 929.3, 332.3)">s</text><text xml:space="preserve" font-family="Consolas,Consolas" font-size="52.0" fill="#504460" transform="matrix(1.00, 0.00, -0.00, -1.00, 957.9, 332.3)">o</text><text xml:space="preserve" font-family="Consolas,Consolas" font-size="52.0" fill="#504460" transform="matrix(1.00, 0.00, -0.00, -1.00, 986.5, 332.3)">n</text><text xml:space="preserve" font-family="Consolas,Consolas" font-size="52.0" fill="#504460" transform="matrix(1.00, 0.00, -0.00, -1.00, 1015.1, 332.3)">.</text><text xml:space="preserve" font-family="Consolas,Consolas" font-size="52.0" fill="#504460" transform="matrix(1.00, 0.00, -0.00, -1.00, 1043.6, 332.3)">h</text><text xml:space="preserve" font-family="Consolas,Consolas" font-size="52.0" fill="#504460" transform="matrix(1.00, 0.00, -0.00, -1.00, 1072.2, 332.3)">t</text><text xml:space="preserve" font-family="Consolas,Consolas" font-size="52.0" fill="#504460" transform="matrix(1.00, 0.00, -0.00, -1.00, 1100.8, 332.3)">m</text><text xml:space="preserve" font-family="Consolas,Consolas" font-size="52.0" fill="#504460" transform="matrix(1.00, 0.00, -0.00, -1.00, 1129.4, 332.3)">l</text><text xml:space="preserve" font-family="BankGothic-Light,Bank Gothic" font-size="52.0" fill="#504460" transform="matrix(1.00, 0.00, -0.00, -1.00, 1129.7, 332.3)"> </text><g><clipPath id="clip0x7f86f6497110"><path d="M 271.0 322.7 L 1129.7 322.7 L 1129.7 328.3 L 271.0 328.3 Z M 271.0 322.7 "></path></clipPath><g clip-path="url(#clip0x7f86f6497110)"><path d="M 108.0 396.5 L 965.7 396.5 " fill="none" stroke="#504460" stroke-width="3.66" transform="matrix(1.00, 0.00, 0.00, -1.00, 164.0, 722.0)"></path></g></g><text xml:space="preserve" font-family="BankGothic-Light,Bank Gothic" font-size="75.4" fill="#C7C0B7" transform="matrix(1.00, 0.00, -0.00, -1.00, 228.0, 224.3)">•</text><text xml:space="preserve" font-family="BankGothic-Light,Bank Gothic" font-size="52.0" fill="#504460" transform="matrix(1.00, 0.00, -0.00, -1.00, 272.5, 236.3)">J</text><text xml:space="preserve" font-family="BankGothic-Light,Bank Gothic" font-size="52.0" fill="#504460" transform="matrix(1.00, 0.00, -0.00, -1.00, 307.6, 236.3)">S</text><text xml:space="preserve" font-family="BankGothic-Light,Bank Gothic" font-size="52.0" fill="#504460" transform="matrix(1.00, 0.00, -0.00, -1.00, 348.2, 236.3)">O</text><text xml:space="preserve" font-family="BankGothic-Light,Bank Gothic" font-size="52.0" fill="#504460" transform="matrix(1.00, 0.00, -0.00, -1.00, 392.6, 236.3)">N</text><text xml:space="preserve" font-family="BankGothic-Light,Bank Gothic" font-size="52.0" fill="#504460" transform="matrix(1.00, 0.00, -0.00, -1.00, 436.2, 236.3)"> </text><text xml:space="preserve" font-family="BankGothic-Light,Bank Gothic" font-size="52.0" fill="#504460" transform="matrix(1.00, 0.00, -0.00, -1.00, 455.6, 236.3)">F</text><text xml:space="preserve" font-family="BankGothic-Light,Bank Gothic" font-size="52.0" fill="#504460" transform="matrix(1.00, 0.00, -0.00, -1.00, 488.8, 236.3)">u</text><text xml:space="preserve" font-family="BankGothic-Light,Bank Gothic" font-size="52.0" fill="#504460" transform="matrix(1.00, 0.00, -0.00, -1.00, 523.4, 236.3)">n</text><text xml:space="preserve" font-family="BankGothic-Light,Bank Gothic" font-size="52.0" fill="#504460" transform="matrix(1.00, 0.00, -0.00, -1.00, 559.1, 236.3)">c</text><text xml:space="preserve" font-family="BankGothic-Light,Bank Gothic" font-size="52.0" fill="#504460" transform="matrix(1.00, 0.00, -0.00, -1.00, 591.1, 236.3)">t</text><text xml:space="preserve" font-family="BankGothic-Light,Bank Gothic" font-size="52.0" fill="#504460" transform="matrix(1.00, 0.00, -0.00, -1.00, 618.4, 236.3)">i</text><text xml:space="preserve" font-family="BankGothic-Light,Bank Gothic" font-size="52.0" fill="#504460" transform="matrix(1.00, 0.00, -0.00, -1.00, 632.6, 236.3)">o</text><text xml:space="preserve" font-family="BankGothic-Light,Bank Gothic" font-size="52.0" fill="#504460" transform="matrix(1.00, 0.00, -0.00, -1.00, 668.5, 236.3)">n</text><text xml:space="preserve" font-family="BankGothic-Light,Bank Gothic" font-size="52.0" fill="#504460" transform="matrix(1.00, 0.00, -0.00, -1.00, 704.1, 236.3)">s</text><text xml:space="preserve" font-family="BankGothic-Light,Bank Gothic" font-size="52.0" fill="#504460" transform="matrix(1.00, 0.00, -0.00, -1.00, 737.3, 236.3)"> </text><text xml:space="preserve" font-family="BankGothic-Light,Bank Gothic" font-size="52.0" fill="#504460" transform="matrix(1.00, 0.00, -0.00, -1.00, 756.7, 236.3)">a</text><text xml:space="preserve" font-family="BankGothic-Light,Bank Gothic" font-size="52.0" fill="#504460" transform="matrix(1.00, 0.00, -0.00, -1.00, 789.3, 236.3)">n</text><text xml:space="preserve" font-family="BankGothic-Light,Bank Gothic" font-size="52.0" fill="#504460" transform="matrix(1.00, 0.00, -0.00, -1.00, 825.0, 236.3)">d</text><text xml:space="preserve" font-family="BankGothic-Light,Bank Gothic" font-size="52.0" fill="#504460" transform="matrix(1.00, 0.00, -0.00, -1.00, 862.9, 236.3)"> </text><text xml:space="preserve" font-family="BankGothic-Light,Bank Gothic" font-size="52.0" fill="#504460" transform="matrix(1.00, 0.00, -0.00, -1.00, 882.3, 236.3)">O</text><text xml:space="preserve" font-family="BankGothic-Light,Bank Gothic" font-size="52.0" fill="#504460" transform="matrix(1.00, 0.00, -0.00, -1.00, 926.7, 236.3)">p</text><text xml:space="preserve" font-family="BankGothic-Light,Bank Gothic" font-size="52.0" fill="#504460" transform="matrix(1.00, 0.00, -0.00, -1.00, 958.2, 236.3)">e</text><text xml:space="preserve" font-family="BankGothic-Light,Bank Gothic" font-size="52.0" fill="#504460" transform="matrix(1.00, 0.00, -0.00, -1.00, 988.4, 236.3)">r</text><text xml:space="preserve" font-family="BankGothic-Light,Bank Gothic" font-size="52.0" fill="#504460" transform="matrix(1.00, 0.00, -0.00, -1.00, 1020.3, 236.3)">a</text><text xml:space="preserve" font-family="BankGothic-Light,Bank Gothic" font-size="52.0" fill="#504460" transform="matrix(1.00, 0.00, -0.00, -1.00, 1052.9, 236.3)">t</text><text xml:space="preserve" font-family="BankGothic-Light,Bank Gothic" font-size="52.0" fill="#504460" transform="matrix(1.00, 0.00, -0.00, -1.00, 1080.2, 236.3)">o</text><text xml:space="preserve" font-family="BankGothic-Light,Bank Gothic" font-size="52.0" fill="#504460" transform="matrix(1.00, 0.00, -0.00, -1.00, 1116.1, 236.3)">r</text><text xml:space="preserve" font-family="BankGothic-Light,Bank Gothic" font-size="52.0" fill="#504460" transform="matrix(1.00, 0.00, -0.00, -1.00, 1148.0, 236.3)">s</text><text xml:space="preserve" font-family="LucidaGrande,Lucida Grande" font-size="52.0" fill="#504460" transform="matrix(1.00, 0.00, -0.00, -1.00, 1181.1, 236.3)"> </text><text xml:space="preserve" font-family="Consolas,Consolas" font-size="52.0" fill="#504460" transform="matrix(1.00, 0.00, -0.00, -1.00, 272.0, 185.3)">h</text><text xml:space="preserve" font-family="Consolas,Consolas" font-size="52.0" fill="#504460" transform="matrix(1.00, 0.00, -0.00, -1.00, 300.6, 185.3)">t</text><text xml:space="preserve" font-family="Consolas,Consolas" font-size="52.0" fill="#504460" transform="matrix(1.00, 0.00, -0.00, -1.00, 329.2, 185.3)">t</text><text xml:space="preserve" font-family="Consolas,Consolas" font-size="52.0" fill="#504460" transform="matrix(1.00, 0.00, -0.00, -1.00, 357.7, 185.3)">p</text><text xml:space="preserve" font-family="Consolas,Consolas" font-size="52.0" fill="#504460" transform="matrix(1.00, 0.00, -0.00, -1.00, 386.3, 185.3)">:</text><text xml:space="preserve" font-family="Consolas,Consolas" font-size="52.0" fill="#504460" transform="matrix(1.00, 0.00, -0.00, -1.00, 414.9, 185.3)">/</text><text xml:space="preserve" font-family="Consolas,Consolas" font-size="52.0" fill="#504460" transform="matrix(1.00, 0.00, -0.00, -1.00, 443.5, 185.3)">/</text><text xml:space="preserve" font-family="Consolas,Consolas" font-size="52.0" fill="#504460" transform="matrix(1.00, 0.00, -0.00, -1.00, 472.1, 185.3)">w</text><text xml:space="preserve" font-family="Consolas,Consolas" font-size="52.0" fill="#504460" transform="matrix(1.00, 0.00, -0.00, -1.00, 500.6, 185.3)">w</text><text xml:space="preserve" font-family="Consolas,Consolas" font-size="52.0" fill="#504460" transform="matrix(1.00, 0.00, -0.00, -1.00, 529.2, 185.3)">w</text><text xml:space="preserve" font-family="Consolas,Consolas" font-size="52.0" fill="#504460" transform="matrix(1.00, 0.00, -0.00, -1.00, 557.8, 185.3)">.</text><text xml:space="preserve" font-family="Consolas,Consolas" font-size="52.0" fill="#504460" transform="matrix(1.00, 0.00, -0.00, -1.00, 586.4, 185.3)">p</text><text xml:space="preserve" font-family="Consolas,Consolas" font-size="52.0" fill="#504460" transform="matrix(1.00, 0.00, -0.00, -1.00, 615.0, 185.3)">o</text><text xml:space="preserve" font-family="Consolas,Consolas" font-size="52.0" fill="#504460" transform="matrix(1.00, 0.00, -0.00, -1.00, 643.5, 185.3)">s</text><text xml:space="preserve" font-family="Consolas,Consolas" font-size="52.0" fill="#504460" transform="matrix(1.00, 0.00, -0.00, -1.00, 672.1, 185.3)">t</text><text xml:space="preserve" font-family="Consolas,Consolas" font-size="52.0" fill="#504460" transform="matrix(1.00, 0.00, -0.00, -1.00, 700.7, 185.3)">g</text><text xml:space="preserve" font-family="Consolas,Consolas" font-size="52.0" fill="#504460" transform="matrix(1.00, 0.00, -0.00, -1.00, 729.3, 185.3)">r</text><text xml:space="preserve" font-family="Consolas,Consolas" font-size="52.0" fill="#504460" transform="matrix(1.00, 0.00, -0.00, -1.00, 757.9, 185.3)">e</text><text xml:space="preserve" font-family="Consolas,Consolas" font-size="52.0" fill="#504460" transform="matrix(1.00, 0.00, -0.00, -1.00, 786.4, 185.3)">s</text><text xml:space="preserve" font-family="Consolas,Consolas" font-size="52.0" fill="#504460" transform="matrix(1.00, 0.00, -0.00, -1.00, 815.0, 185.3)">q</text><text xml:space="preserve" font-family="Consolas,Consolas" font-size="52.0" fill="#504460" transform="matrix(1.00, 0.00, -0.00, -1.00, 843.6, 185.3)">l</text><text xml:space="preserve" font-family="Consolas,Consolas" font-size="52.0" fill="#504460" transform="matrix(1.00, 0.00, -0.00, -1.00, 872.2, 185.3)">.</text><text xml:space="preserve" font-family="Consolas,Consolas" font-size="52.0" fill="#504460" transform="matrix(1.00, 0.00, -0.00, -1.00, 900.7, 185.3)">o</text><text xml:space="preserve" font-family="Consolas,Consolas" font-size="52.0" fill="#504460" transform="matrix(1.00, 0.00, -0.00, -1.00, 929.3, 185.3)">r</text><text xml:space="preserve" font-family="Consolas,Consolas" font-size="52.0" fill="#504460" transform="matrix(1.00, 0.00, -0.00, -1.00, 957.9, 185.3)">g</text><text xml:space="preserve" font-family="Consolas,Consolas" font-size="52.0" fill="#504460" transform="matrix(1.00, 0.00, -0.00, -1.00, 986.5, 185.3)">/</text><text xml:space="preserve" font-family="Consolas,Consolas" font-size="52.0" fill="#504460" transform="matrix(1.00, 0.00, -0.00, -1.00, 1015.1, 185.3)">d</text><text xml:space="preserve" font-family="Consolas,Consolas" font-size="52.0" fill="#504460" transform="matrix(1.00, 0.00, -0.00, -1.00, 1043.6, 185.3)">o</text><text xml:space="preserve" font-family="Consolas,Consolas" font-size="52.0" fill="#504460" transform="matrix(1.00, 0.00, -0.00, -1.00, 1072.2, 185.3)">c</text><text xml:space="preserve" font-family="Consolas,Consolas" font-size="52.0" fill="#504460" transform="matrix(1.00, 0.00, -0.00, -1.00, 1100.8, 185.3)">s</text><text xml:space="preserve" font-family="Consolas,Consolas" font-size="52.0" fill="#504460" transform="matrix(1.00, 0.00, -0.00, -1.00, 1129.4, 185.3)">/</text><text xml:space="preserve" font-family="Consolas,Consolas" font-size="52.0" fill="#504460" transform="matrix(1.00, 0.00, -0.00, -1.00, 1158.0, 185.3)">9</text><text xml:space="preserve" font-family="Consolas,Consolas" font-size="52.0" fill="#504460" transform="matrix(1.00, 0.00, -0.00, -1.00, 1186.5, 185.3)">.</text><text xml:space="preserve" font-family="Consolas,Consolas" font-size="52.0" fill="#504460" transform="matrix(1.00, 0.00, -0.00, -1.00, 1215.1, 185.3)">4</text><text xml:space="preserve" font-family="Consolas,Consolas" font-size="52.0" fill="#504460" transform="matrix(1.00, 0.00, -0.00, -1.00, 1243.7, 185.3)">/</text><g><clipPath id="clip0x7f86f6bafaf0"><path d="M 271.0 175.7 L 1272.6 175.7 L 1272.6 181.3 L 271.0 181.3 Z M 271.0 175.7 "></path></clipPath><g clip-path="url(#clip0x7f86f6bafaf0)"><path d="M 108.0 543.5 L 1108.6 543.5 " fill="none" stroke="#504460" stroke-width="3.66" transform="matrix(1.00, 0.00, 0.00, -1.00, 164.0, 722.0)"></path></g></g><text xml:space="preserve" font-family="Consolas,Consolas" font-size="52.0" fill="#504460" transform="matrix(1.00, 0.00, -0.00, -1.00, 272.0, 124.3)">i</text><text xml:space="preserve" font-family="Consolas,Consolas" font-size="52.0" fill="#504460" transform="matrix(1.00, 0.00, -0.00, -1.00, 300.6, 124.3)">n</text><text xml:space="preserve" font-family="Consolas,Consolas" font-size="52.0" fill="#504460" transform="matrix(1.00, 0.00, -0.00, -1.00, 329.2, 124.3)">t</text><text xml:space="preserve" font-family="Consolas,Consolas" font-size="52.0" fill="#504460" transform="matrix(1.00, 0.00, -0.00, -1.00, 357.7, 124.3)">e</text><text xml:space="preserve" font-family="Consolas,Consolas" font-size="52.0" fill="#504460" transform="matrix(1.00, 0.00, -0.00, -1.00, 386.3, 124.3)">r</text><text xml:space="preserve" font-family="Consolas,Consolas" font-size="52.0" fill="#504460" transform="matrix(1.00, 0.00, -0.00, -1.00, 414.9, 124.3)">a</text><text xml:space="preserve" font-family="Consolas,Consolas" font-size="52.0" fill="#504460" transform="matrix(1.00, 0.00, -0.00, -1.00, 443.5, 124.3)">c</text><text xml:space="preserve" font-family="Consolas,Consolas" font-size="52.0" fill="#504460" transform="matrix(1.00, 0.00, -0.00, -1.00, 472.1, 124.3)">t</text><text xml:space="preserve" font-family="Consolas,Consolas" font-size="52.0" fill="#504460" transform="matrix(1.00, 0.00, -0.00, -1.00, 500.6, 124.3)">i</text><text xml:space="preserve" font-family="Consolas,Consolas" font-size="52.0" fill="#504460" transform="matrix(1.00, 0.00, -0.00, -1.00, 529.2, 124.3)">v</text><text xml:space="preserve" font-family="Consolas,Consolas" font-size="52.0" fill="#504460" transform="matrix(1.00, 0.00, -0.00, -1.00, 557.8, 124.3)">e</text><text xml:space="preserve" font-family="Consolas,Consolas" font-size="52.0" fill="#504460" transform="matrix(1.00, 0.00, -0.00, -1.00, 586.4, 124.3)">/</text><text xml:space="preserve" font-family="Consolas,Consolas" font-size="52.0" fill="#504460" transform="matrix(1.00, 0.00, -0.00, -1.00, 615.0, 124.3)">f</text><text xml:space="preserve" font-family="Consolas,Consolas" font-size="52.0" fill="#504460" transform="matrix(1.00, 0.00, -0.00, -1.00, 643.5, 124.3)">u</text><text xml:space="preserve" font-family="Consolas,Consolas" font-size="52.0" fill="#504460" transform="matrix(1.00, 0.00, -0.00, -1.00, 672.1, 124.3)">n</text><text xml:space="preserve" font-family="Consolas,Consolas" font-size="52.0" fill="#504460" transform="matrix(1.00, 0.00, -0.00, -1.00, 700.7, 124.3)">c</text><text xml:space="preserve" font-family="Consolas,Consolas" font-size="52.0" fill="#504460" transform="matrix(1.00, 0.00, -0.00, -1.00, 729.3, 124.3)">t</text><text xml:space="preserve" font-family="Consolas,Consolas" font-size="52.0" fill="#504460" transform="matrix(1.00, 0.00, -0.00, -1.00, 757.9, 124.3)">i</text><text xml:space="preserve" font-family="Consolas,Consolas" font-size="52.0" fill="#504460" transform="matrix(1.00, 0.00, -0.00, -1.00, 786.4, 124.3)">o</text><text xml:space="preserve" font-family="Consolas,Consolas" font-size="52.0" fill="#504460" transform="matrix(1.00, 0.00, -0.00, -1.00, 815.0, 124.3)">n</text><text xml:space="preserve" font-family="Consolas,Consolas" font-size="52.0" fill="#504460" transform="matrix(1.00, 0.00, -0.00, -1.00, 843.6, 124.3)">s</text><text xml:space="preserve" font-family="Consolas,Consolas" font-size="52.0" fill="#504460" transform="matrix(1.00, 0.00, -0.00, -1.00, 872.2, 124.3)">-</text><text xml:space="preserve" font-family="Consolas,Consolas" font-size="52.0" fill="#504460" transform="matrix(1.00, 0.00, -0.00, -1.00, 900.7, 124.3)">­</text><text xml:space="preserve" font-family="Consolas,Consolas" font-size="52.0" fill="#504460" transform="matrix(1.00, 0.00, -0.00, -1.00, 900.7, 124.3)">‐</text><text xml:space="preserve" font-family="Consolas,Consolas" font-size="52.0" fill="#504460" transform="matrix(1.00, 0.00, -0.00, -1.00, 929.3, 124.3)">j</text><text xml:space="preserve" font-family="Consolas,Consolas" font-size="52.0" fill="#504460" transform="matrix(1.00, 0.00, -0.00, -1.00, 957.9, 124.3)">s</text><text xml:space="preserve" font-family="Consolas,Consolas" font-size="52.0" fill="#504460" transform="matrix(1.00, 0.00, -0.00, -1.00, 986.5, 124.3)">o</text><text xml:space="preserve" font-family="Consolas,Consolas" font-size="52.0" fill="#504460" transform="matrix(1.00, 0.00, -0.00, -1.00, 1015.1, 124.3)">n</text><text xml:space="preserve" font-family="Consolas,Consolas" font-size="52.0" fill="#504460" transform="matrix(1.00, 0.00, -0.00, -1.00, 1043.6, 124.3)">.</text><text xml:space="preserve" font-family="Consolas,Consolas" font-size="52.0" fill="#504460" transform="matrix(1.00, 0.00, -0.00, -1.00, 1072.2, 124.3)">h</text><text xml:space="preserve" font-family="Consolas,Consolas" font-size="52.0" fill="#504460" transform="matrix(1.00, 0.00, -0.00, -1.00, 1100.8, 124.3)">t</text><text xml:space="preserve" font-family="Consolas,Consolas" font-size="52.0" fill="#504460" transform="matrix(1.00, 0.00, -0.00, -1.00, 1129.4, 124.3)">m</text><text xml:space="preserve" font-family="Consolas,Consolas" font-size="52.0" fill="#504460" transform="matrix(1.00, 0.00, -0.00, -1.00, 1158.0, 124.3)">l</text><g><clipPath id="clip0x7f86f6bc3020"><path d="M 271.0 114.7 L 1158.3 114.7 L 1158.3 120.3 L 271.0 120.3 Z M 271.0 114.7 "></path></clipPath><g clip-path="url(#clip0x7f86f6bc3020)"><path d="M 108.0 604.5 L 994.3 604.5 " fill="none" stroke="#504460" stroke-width="3.66" transform="matrix(1.00, 0.00, 0.00, -1.00, 164.0, 722.0)"></path></g></g></g></svg>