<?xml version="1.0" encoding="UTF-8" standalone="no"?><svg xmlns="http://www.w3.org/2000/svg" xmlns:xlink="http://www.w3.org/1999/xlink" clip-rule="evenodd" stroke-miterlimit="10" viewBox="0 0 1680 1050"><desc>SVG generated by Keynote</desc><defs><linearGradient id="gradSh1.29" x1="0.0" y1="0.0" x2="100.0" y2="0.0" gradientUnits="userSpaceOnUse" gradientTransform="matrix(0.00, -9.40, -15.23, 0.00, 839.5, 995.0)"><stop offset="0.00000" stop-color="#FFFFFF"></stop><stop offset="0.01246" stop-color="#FEFEFE"></stop><stop offset="1.00000" stop-color="#D6D6D6"></stop></linearGradient></defs><g transform="matrix(1.00, 0.00, -0.00, -1.00, 0.0, 1050.0)"><path d="M 0.0 1050.0 L 1680.0 1050.0 L 1680.0 0.0 L 0.0 0.0 Z M 0.0 1050.0 " fill="#D3CCC3"></path><image xlink:href="../../8109EDB8-06C5-4C2E-86C8-B44BC6D319A9/assets/DDDAF652E522831AA96336DA7986376C.png" width="1549.00" height="966.00" transform="matrix(1.00, 0.00, -0.00, -1.00, 65.0, 1005.0)" opacity="0.60"></image><g><clipPath id="clip0x6000074bcc20"><path d="M 79.0 71.0 L 79.0 979.0 C 79.0 987.3 85.7 994.0 94.0 994.0 L 1585.0 994.0 C 1593.3 994.0 1600.0 987.3 1600.0 979.0 L 1600.0 71.0 C 1600.0 62.7 1593.3 56.0 1585.0 56.0 L 94.0 56.0 C 85.7 56.0 79.0 62.7 79.0 71.0 Z M 79.0 71.0 "></path></clipPath><g clip-path="url(#clip0x6000074bcc20)"><path d="M 79.0 71.0 L 79.0 979.0 C 79.0 987.3 85.7 994.0 94.0 994.0 L 1585.0 994.0 C 1593.3 994.0 1600.0 987.3 1600.0 979.0 L 1600.0 71.0 C 1600.0 62.7 1593.3 56.0 1585.0 56.0 L 94.0 56.0 C 85.7 56.0 79.0 62.7 79.0 71.0 Z M 79.0 71.0 " fill="url(#gradSh1.29)"></path></g></g><path d="M 1600.0 815.0 L 1631.0 815.0 L 1600.0 748.0 Z M 1600.0 815.0 " fill="#054009"></path><image xlink:href="../../8109EDB8-06C5-4C2E-86C8-B44BC6D319A9/assets/026CA60A95B90F09877A7E01B4424555.png" width="88.00" height="127.00" transform="matrix(1.00, 0.00, -0.00, -1.00, 1548.1, 932.2)" opacity="0.32"></image><path d="M 1551.0 815.3 L 1551.0 927.7 C 1551.0 929.5 1552.5 931.0 1554.3 931.0 L 1627.7 931.0 C 1629.5 931.0 1631.0 929.5 1631.0 927.7 L 1631.0 815.3 C 1631.0 813.5 1629.5 812.0 1627.7 812.0 L 1554.3 812.0 C 1552.5 812.0 1551.0 813.5 1551.0 815.3 Z M 1551.0 815.3 " fill="#0B5C18"></path><text xml:space="preserve" font-family="BankGothic-Medium,Bank Gothic" font-size="24.0" fill="#FFFFFF" transform="matrix(1.00, 0.00, -0.00, -1.00, 1582.5, 901.4)">D</text><text xml:space="preserve" font-family="BankGothic-Medium,Bank Gothic" font-size="24.0" fill="#FFFFFF" transform="matrix(1.00, 0.00, -0.00, -1.00, 1602.9, 901.4)"> </text><text xml:space="preserve" font-family="BankGothic-Medium,Bank Gothic" font-size="24.0" fill="#FFFFFF" transform="matrix(1.00, 0.00, -0.00, -1.00, 1582.5, 876.4)">W</text><text xml:space="preserve" font-family="LucidaGrande-Bold,Lucida Grande" font-weight="bold" font-size="24.0" fill="#FFFFFF" transform="matrix(1.00, 0.00, -0.00, -1.00, 1604.8, 876.4)"> </text><text xml:space="preserve" font-family="BankGothic-Medium,Bank Gothic" font-size="24.0" fill="#FFFFFF" transform="matrix(1.00, 0.00, -0.00, -1.00, 1582.5, 851.4)">D</text><text xml:space="preserve" font-family="BankGothic-Medium,Bank Gothic" font-size="24.0" fill="#FFFFFF" transform="matrix(1.00, 0.00, -0.00, -1.00, 1602.9, 851.4)"> </text><text xml:space="preserve" font-family="BankGothic-Medium,Bank Gothic" font-size="24.0" fill="#FFFFFF" transform="matrix(1.00, 0.00, -0.00, -1.00, 1582.5, 826.4)">C</text><text xml:space="preserve" font-family="BankGothic-Medium,Bank Gothic" font-size="110.0" fill="#05510A" transform="matrix(1.00, 0.00, -0.00, -1.00, 204.9, 809.0)">J</text><text xml:space="preserve" font-family="BankGothic-Medium,Bank Gothic" font-size="110.0" fill="#05510A" transform="matrix(1.00, 0.00, -0.00, -1.00, 278.2, 809.0)">S</text><text xml:space="preserve" font-family="BankGothic-Medium,Bank Gothic" font-size="110.0" fill="#05510A" transform="matrix(1.00, 0.00, -0.00, -1.00, 367.2, 809.0)">O</text><text xml:space="preserve" font-family="BankGothic-Medium,Bank Gothic" font-size="110.0" fill="#05510A" transform="matrix(1.00, 0.00, -0.00, -1.00, 463.8, 809.0)">N</text><text xml:space="preserve" font-family="BankGothic-Medium,Bank Gothic" font-size="110.0" fill="#05510A" transform="matrix(1.00, 0.00, -0.00, -1.00, 559.4, 809.0)">B</text><text xml:space="preserve" font-family="BankGothic-Medium,Bank Gothic" font-size="110.0" fill="#05510A" transform="matrix(1.00, 0.00, -0.00, -1.00, 646.7, 809.0)"> </text><text xml:space="preserve" font-family="BankGothic-Medium,Bank Gothic" font-size="110.0" fill="#05510A" transform="matrix(1.00, 0.00, -0.00, -1.00, 689.3, 809.0)">C</text><text xml:space="preserve" font-family="BankGothic-Medium,Bank Gothic" font-size="110.0" fill="#05510A" transform="matrix(1.00, 0.00, -0.00, -1.00, 777.4, 809.0)">o</text><text xml:space="preserve" font-family="BankGothic-Medium,Bank Gothic" font-size="110.0" fill="#05510A" transform="matrix(1.00, 0.00, -0.00, -1.00, 856.1, 809.0)">n</text><text xml:space="preserve" font-family="BankGothic-Medium,Bank Gothic" font-size="110.0" fill="#05510A" transform="matrix(1.00, 0.00, -0.00, -1.00, 934.4, 809.0)">t</text><text xml:space="preserve" font-family="BankGothic-Medium,Bank Gothic" font-size="110.0" fill="#05510A" transform="matrix(1.00, 0.00, -0.00, -1.00, 999.3, 809.0)">a</text><text xml:space="preserve" font-family="BankGothic-Medium,Bank Gothic" font-size="110.0" fill="#05510A" transform="matrix(1.00, 0.00, -0.00, -1.00, 1070.3, 809.0)">i</text><text xml:space="preserve" font-family="BankGothic-Medium,Bank Gothic" font-size="110.0" fill="#05510A" transform="matrix(1.00, 0.00, -0.00, -1.00, 1102.3, 809.0)">n</text><text xml:space="preserve" font-family="BankGothic-Medium,Bank Gothic" font-size="110.0" fill="#05510A" transform="matrix(1.00, 0.00, -0.00, -1.00, 1180.7, 809.0)">m</text><text xml:space="preserve" font-family="BankGothic-Medium,Bank Gothic" font-size="110.0" fill="#05510A" transform="matrix(1.00, 0.00, -0.00, -1.00, 1265.0, 809.0)">e</text><text xml:space="preserve" font-family="BankGothic-Medium,Bank Gothic" font-size="110.0" fill="#05510A" transform="matrix(1.00, 0.00, -0.00, -1.00, 1331.9, 809.0)">n</text><text xml:space="preserve" font-family="BankGothic-Medium,Bank Gothic" font-size="110.0" fill="#05510A" transform="matrix(1.00, 0.00, -0.00, -1.00, 1410.2, 809.0)">t</text><text xml:space="preserve" font-family="Consolas,Consolas" font-size="48.0" fill="#504460" transform="matrix(1.00, 0.00, -0.00, -1.00, 168.0, 598.6)">/</text><text xml:space="preserve" font-family="Consolas,Consolas" font-size="48.0" fill="#504460" transform="matrix(1.00, 0.00, -0.00, -1.00, 194.4, 598.6)">*</text><text xml:space="preserve" font-family="Consolas,Consolas" font-size="48.0" fill="#504460" transform="matrix(1.00, 0.00, -0.00, -1.00, 220.8, 598.6)">	</text><text xml:space="preserve" font-family="Consolas,Consolas" font-size="48.0" fill="#504460" transform="matrix(1.00, 0.00, -0.00, -1.00, 248.8, 598.6)"></text><text xml:space="preserve" font-family="Consolas,Consolas" font-size="48.0" fill="#504460" transform="matrix(1.00, 0.00, -0.00, -1.00, 248.8, 598.6)"> </text><text xml:space="preserve" font-family="Consolas,Consolas" font-size="48.0" fill="#504460" transform="matrix(1.00, 0.00, -0.00, -1.00, 275.1, 598.6)"> </text><text xml:space="preserve" font-family="Consolas,Consolas" font-size="48.0" fill="#504460" transform="matrix(1.00, 0.00, -0.00, -1.00, 301.5, 598.6)">I</text><text xml:space="preserve" font-family="Consolas,Consolas" font-size="48.0" fill="#504460" transform="matrix(1.00, 0.00, -0.00, -1.00, 327.9, 598.6)">s</text><text xml:space="preserve" font-family="Consolas,Consolas" font-size="48.0" fill="#504460" transform="matrix(1.00, 0.00, -0.00, -1.00, 354.3, 598.6)">	</text><text xml:space="preserve" font-family="Consolas,Consolas" font-size="48.0" fill="#504460" transform="matrix(1.00, 0.00, -0.00, -1.00, 382.3, 598.6)"></text><text xml:space="preserve" font-family="Consolas,Consolas" font-size="48.0" fill="#504460" transform="matrix(1.00, 0.00, -0.00, -1.00, 382.3, 598.6)"> </text><text xml:space="preserve" font-family="Consolas,Consolas" font-size="48.0" fill="#504460" transform="matrix(1.00, 0.00, -0.00, -1.00, 408.7, 598.6)"> </text><text xml:space="preserve" font-family="Consolas,Consolas" font-size="48.0" fill="#504460" transform="matrix(1.00, 0.00, -0.00, -1.00, 435.0, 598.6)">t</text><text xml:space="preserve" font-family="Consolas,Consolas" font-size="48.0" fill="#504460" transform="matrix(1.00, 0.00, -0.00, -1.00, 461.4, 598.6)">h</text><text xml:space="preserve" font-family="Consolas,Consolas" font-size="48.0" fill="#504460" transform="matrix(1.00, 0.00, -0.00, -1.00, 487.8, 598.6)">e</text><text xml:space="preserve" font-family="Consolas,Consolas" font-size="48.0" fill="#504460" transform="matrix(1.00, 0.00, -0.00, -1.00, 514.2, 598.6)">	</text><text xml:space="preserve" font-family="Consolas,Consolas" font-size="48.0" fill="#504460" transform="matrix(1.00, 0.00, -0.00, -1.00, 542.2, 598.6)"></text><text xml:space="preserve" font-family="Consolas,Consolas" font-size="48.0" fill="#504460" transform="matrix(1.00, 0.00, -0.00, -1.00, 542.2, 598.6)"> </text><text xml:space="preserve" font-family="Consolas,Consolas" font-size="48.0" fill="#504460" transform="matrix(1.00, 0.00, -0.00, -1.00, 568.6, 598.6)"> </text><text xml:space="preserve" font-family="Consolas,Consolas" font-size="48.0" fill="#504460" transform="matrix(1.00, 0.00, -0.00, -1.00, 595.0, 598.6)">s</text><text xml:space="preserve" font-family="Consolas,Consolas" font-size="48.0" fill="#504460" transform="matrix(1.00, 0.00, -0.00, -1.00, 621.3, 598.6)">p</text><text xml:space="preserve" font-family="Consolas,Consolas" font-size="48.0" fill="#504460" transform="matrix(1.00, 0.00, -0.00, -1.00, 647.7, 598.6)">e</text><text xml:space="preserve" font-family="Consolas,Consolas" font-size="48.0" fill="#504460" transform="matrix(1.00, 0.00, -0.00, -1.00, 674.1, 598.6)">c</text><text xml:space="preserve" font-family="Consolas,Consolas" font-size="48.0" fill="#504460" transform="matrix(1.00, 0.00, -0.00, -1.00, 700.5, 598.6)">i</text><text xml:space="preserve" font-family="Consolas,Consolas" font-size="48.0" fill="#504460" transform="matrix(1.00, 0.00, -0.00, -1.00, 726.9, 598.6)">f</text><text xml:space="preserve" font-family="Consolas,Consolas" font-size="48.0" fill="#504460" transform="matrix(1.00, 0.00, -0.00, -1.00, 753.2, 598.6)">i</text><text xml:space="preserve" font-family="Consolas,Consolas" font-size="48.0" fill="#504460" transform="matrix(1.00, 0.00, -0.00, -1.00, 779.6, 598.6)">e</text><text xml:space="preserve" font-family="Consolas,Consolas" font-size="48.0" fill="#504460" transform="matrix(1.00, 0.00, -0.00, -1.00, 806.0, 598.6)">d</text><text xml:space="preserve" font-family="Consolas,Consolas" font-size="48.0" fill="#504460" transform="matrix(1.00, 0.00, -0.00, -1.00, 832.4, 598.6)">	</text><text xml:space="preserve" font-family="Consolas,Consolas" font-size="48.0" fill="#504460" transform="matrix(1.00, 0.00, -0.00, -1.00, 860.4, 598.6)"></text><text xml:space="preserve" font-family="Consolas,Consolas" font-size="48.0" fill="#504460" transform="matrix(1.00, 0.00, -0.00, -1.00, 860.4, 598.6)"> </text><text xml:space="preserve" font-family="Consolas,Consolas" font-size="48.0" fill="#504460" transform="matrix(1.00, 0.00, -0.00, -1.00, 886.8, 598.6)"> </text><text xml:space="preserve" font-family="Consolas,Consolas" font-size="48.0" fill="#504460" transform="matrix(1.00, 0.00, -0.00, -1.00, 913.1, 598.6)">J</text><text xml:space="preserve" font-family="Consolas,Consolas" font-size="48.0" fill="#504460" transform="matrix(1.00, 0.00, -0.00, -1.00, 939.5, 598.6)">S</text><text xml:space="preserve" font-family="Consolas,Consolas" font-size="48.0" fill="#504460" transform="matrix(1.00, 0.00, -0.00, -1.00, 965.9, 598.6)">O</text><text xml:space="preserve" font-family="Consolas,Consolas" font-size="48.0" fill="#504460" transform="matrix(1.00, 0.00, -0.00, -1.00, 992.3, 598.6)">N</text><text xml:space="preserve" font-family="Consolas,Consolas" font-size="48.0" fill="#504460" transform="matrix(1.00, 0.00, -0.00, -1.00, 1018.7, 598.6)">	</text><text xml:space="preserve" font-family="Consolas,Consolas" font-size="48.0" fill="#504460" transform="matrix(1.00, 0.00, -0.00, -1.00, 1046.7, 598.6)"></text><text xml:space="preserve" font-family="Consolas,Consolas" font-size="48.0" fill="#504460" transform="matrix(1.00, 0.00, -0.00, -1.00, 1046.7, 598.6)"> </text><text xml:space="preserve" font-family="Consolas,Consolas" font-size="48.0" fill="#504460" transform="matrix(1.00, 0.00, -0.00, -1.00, 1073.0, 598.6)"> </text><text xml:space="preserve" font-family="Consolas,Consolas" font-size="48.0" fill="#504460" transform="matrix(1.00, 0.00, -0.00, -1.00, 1099.4, 598.6)">c</text><text xml:space="preserve" font-family="Consolas,Consolas" font-size="48.0" fill="#504460" transform="matrix(1.00, 0.00, -0.00, -1.00, 1125.8, 598.6)">o</text><text xml:space="preserve" font-family="Consolas,Consolas" font-size="48.0" fill="#504460" transform="matrix(1.00, 0.00, -0.00, -1.00, 1152.2, 598.6)">n</text><text xml:space="preserve" font-family="Consolas,Consolas" font-size="48.0" fill="#504460" transform="matrix(1.00, 0.00, -0.00, -1.00, 1178.6, 598.6)">t</text><text xml:space="preserve" font-family="Consolas,Consolas" font-size="48.0" fill="#504460" transform="matrix(1.00, 0.00, -0.00, -1.00, 1205.0, 598.6)">a</text><text xml:space="preserve" font-family="Consolas,Consolas" font-size="48.0" fill="#504460" transform="matrix(1.00, 0.00, -0.00, -1.00, 1231.3, 598.6)">i</text><text xml:space="preserve" font-family="Consolas,Consolas" font-size="48.0" fill="#504460" transform="matrix(1.00, 0.00, -0.00, -1.00, 1257.7, 598.6)">n</text><text xml:space="preserve" font-family="Consolas,Consolas" font-size="48.0" fill="#504460" transform="matrix(1.00, 0.00, -0.00, -1.00, 1284.1, 598.6)">e</text><text xml:space="preserve" font-family="Consolas,Consolas" font-size="48.0" fill="#504460" transform="matrix(1.00, 0.00, -0.00, -1.00, 1310.5, 598.6)">d</text><text xml:space="preserve" font-family="Consolas,Consolas" font-size="48.0" fill="#504460" transform="matrix(1.00, 0.00, -0.00, -1.00, 1336.9, 598.6)">	</text><text xml:space="preserve" font-family="Consolas,Consolas" font-size="48.0" fill="#504460" transform="matrix(1.00, 0.00, -0.00, -1.00, 1364.9, 598.6)"></text><text xml:space="preserve" font-family="Consolas,Consolas" font-size="48.0" fill="#504460" transform="matrix(1.00, 0.00, -0.00, -1.00, 1364.9, 598.6)"> </text><text xml:space="preserve" font-family="Consolas,Consolas" font-size="48.0" fill="#504460" transform="matrix(1.00, 0.00, -0.00, -1.00, 1391.2, 598.6)"> </text><text xml:space="preserve" font-family="Consolas,Consolas" font-size="48.0" fill="#504460" transform="matrix(1.00, 0.00, -0.00, -1.00, 1417.6, 598.6)">i</text><text xml:space="preserve" font-family="Consolas,Consolas" font-size="48.0" fill="#504460" transform="matrix(1.00, 0.00, -0.00, -1.00, 1444.0, 598.6)">n</text><text xml:space="preserve" font-family="Consolas,Consolas" font-size="48.0" fill="#504460" transform="matrix(1.00, 0.00, -0.00, -1.00, 1470.4, 598.6)">	</text><text xml:space="preserve" font-family="Consolas,Consolas" font-size="48.0" fill="#504460" transform="matrix(1.00, 0.00, -0.00, -1.00, 1498.4, 598.6)"></text><text xml:space="preserve" font-family="Consolas,Consolas" font-size="48.0" fill="#504460" transform="matrix(1.00, 0.00, -0.00, -1.00, 1498.4, 598.6)"> </text><text xml:space="preserve" font-family="Consolas,Consolas" font-size="48.0" fill="#504460" transform="matrix(1.00, 0.00, -0.00, -1.00, 1524.8, 598.6)"> </text><text xml:space="preserve" font-family="Consolas,Consolas" font-size="48.0" fill="#504460" transform="matrix(1.00, 0.00, -0.00, -1.00, 1551.1, 598.6)">r</text><text xml:space="preserve" font-family="Consolas,Consolas" font-size="48.0" fill="#504460" transform="matrix(1.00, 0.00, -0.00, -1.00, 1577.5, 598.6)">e</text><text xml:space="preserve" font-family="Consolas,Consolas" font-size="48.0" fill="#504460" transform="matrix(1.00, 0.00, -0.00, -1.00, 1603.9, 598.6)">s</text><text xml:space="preserve" font-family="Consolas,Consolas" font-size="48.0" fill="#504460" transform="matrix(1.00, 0.00, -0.00, -1.00, 1630.3, 598.6)">p</text><text xml:space="preserve" font-family="Consolas,Consolas" font-size="48.0" fill="#504460" transform="matrix(1.00, 0.00, -0.00, -1.00, 1656.7, 598.6)">o</text><text xml:space="preserve" font-family="Consolas,Consolas" font-size="48.0" fill="#504460" transform="matrix(1.00, 0.00, -0.00, -1.00, 1683.1, 598.6)">n</text><text xml:space="preserve" font-family="Consolas,Consolas" font-size="48.0" fill="#504460" transform="matrix(1.00, 0.00, -0.00, -1.00, 1709.4, 598.6)">s</text><text xml:space="preserve" font-family="Consolas,Consolas" font-size="48.0" fill="#504460" transform="matrix(1.00, 0.00, -0.00, -1.00, 1735.8, 598.6)">e</text><text xml:space="preserve" font-family="Consolas,Consolas" font-size="48.0" fill="#504460" transform="matrix(1.00, 0.00, -0.00, -1.00, 1762.2, 598.6)">?</text><text xml:space="preserve" font-family="Consolas,Consolas" font-size="48.0" fill="#504460" transform="matrix(1.00, 0.00, -0.00, -1.00, 1788.6, 598.6)">	</text><text xml:space="preserve" font-family="Consolas,Consolas" font-size="48.0" fill="#504460" transform="matrix(1.00, 0.00, -0.00, -1.00, 1816.6, 598.6)"></text><text xml:space="preserve" font-family="Consolas,Consolas" font-size="48.0" fill="#504460" transform="matrix(1.00, 0.00, -0.00, -1.00, 1816.6, 598.6)"> </text><text xml:space="preserve" font-family="Consolas,Consolas" font-size="48.0" fill="#504460" transform="matrix(1.00, 0.00, -0.00, -1.00, 1843.0, 598.6)"> </text><text xml:space="preserve" font-family="Consolas,Consolas" font-size="48.0" fill="#504460" transform="matrix(1.00, 0.00, -0.00, -1.00, 1869.3, 598.6)">*</text><text xml:space="preserve" font-family="Consolas,Consolas" font-size="48.0" fill="#504460" transform="matrix(1.00, 0.00, -0.00, -1.00, 1895.7, 598.6)">/</text><text xml:space="preserve" font-family="Monaco,Monaco" font-size="48.0" fill="#504460" transform="matrix(1.00, 0.00, -0.00, -1.00, 1487.5, 598.6)"> </text><text xml:space="preserve" font-family="Monaco,Monaco" font-size="48.0" fill="#504460" transform="matrix(1.00, 0.00, -0.00, -1.00, 168.0, 542.6)"> </text><text xml:space="preserve" font-family="Consolas,Consolas" font-size="48.0" fill="#504460" transform="matrix(1.00, 0.00, -0.00, -1.00, 168.0, 486.6)">S</text><text xml:space="preserve" font-family="Consolas,Consolas" font-size="48.0" fill="#504460" transform="matrix(1.00, 0.00, -0.00, -1.00, 194.4, 486.6)">E</text><text xml:space="preserve" font-family="Consolas,Consolas" font-size="48.0" fill="#504460" transform="matrix(1.00, 0.00, -0.00, -1.00, 220.8, 486.6)">L</text><text xml:space="preserve" font-family="Consolas,Consolas" font-size="48.0" fill="#504460" transform="matrix(1.00, 0.00, -0.00, -1.00, 247.1, 486.6)">E</text><text xml:space="preserve" font-family="Consolas,Consolas" font-size="48.0" fill="#504460" transform="matrix(1.00, 0.00, -0.00, -1.00, 273.5, 486.6)">C</text><text xml:space="preserve" font-family="Consolas,Consolas" font-size="48.0" fill="#504460" transform="matrix(1.00, 0.00, -0.00, -1.00, 299.9, 486.6)">T</text><text xml:space="preserve" font-family="Consolas,Consolas" font-size="48.0" fill="#504460" transform="matrix(1.00, 0.00, -0.00, -1.00, 326.3, 486.6)">	</text><text xml:space="preserve" font-family="Consolas,Consolas" font-size="48.0" fill="#504460" transform="matrix(1.00, 0.00, -0.00, -1.00, 354.3, 486.6)"></text><text xml:space="preserve" font-family="Consolas,Consolas" font-size="48.0" fill="#504460" transform="matrix(1.00, 0.00, -0.00, -1.00, 354.3, 486.6)"> </text><text xml:space="preserve" font-family="Consolas,Consolas" font-size="48.0" fill="#504460" transform="matrix(1.00, 0.00, -0.00, -1.00, 380.7, 486.6)"> </text><text xml:space="preserve" font-family="Consolas,Consolas" font-size="48.0" fill="#504460" transform="matrix(1.00, 0.00, -0.00, -1.00, 407.0, 486.6)">r</text><text xml:space="preserve" font-family="Consolas,Consolas" font-size="48.0" fill="#504460" transform="matrix(1.00, 0.00, -0.00, -1.00, 433.4, 486.6)">e</text><text xml:space="preserve" font-family="Consolas,Consolas" font-size="48.0" fill="#504460" transform="matrix(1.00, 0.00, -0.00, -1.00, 459.8, 486.6)">s</text><text xml:space="preserve" font-family="Consolas,Consolas" font-size="48.0" fill="#504460" transform="matrix(1.00, 0.00, -0.00, -1.00, 486.2, 486.6)">p</text><text xml:space="preserve" font-family="Consolas,Consolas" font-size="48.0" fill="#504460" transform="matrix(1.00, 0.00, -0.00, -1.00, 512.6, 486.6)">o</text><text xml:space="preserve" font-family="Consolas,Consolas" font-size="48.0" fill="#504460" transform="matrix(1.00, 0.00, -0.00, -1.00, 539.0, 486.6)">n</text><text xml:space="preserve" font-family="Consolas,Consolas" font-size="48.0" fill="#504460" transform="matrix(1.00, 0.00, -0.00, -1.00, 565.3, 486.6)">s</text><text xml:space="preserve" font-family="Consolas,Consolas" font-size="48.0" fill="#504460" transform="matrix(1.00, 0.00, -0.00, -1.00, 591.7, 486.6)">e</text><text xml:space="preserve" font-family="Consolas,Consolas" font-size="48.0" fill="#504460" transform="matrix(1.00, 0.00, -0.00, -1.00, 618.1, 486.6)">	</text><text xml:space="preserve" font-family="Consolas,Consolas" font-size="48.0" fill="#504460" transform="matrix(1.00, 0.00, -0.00, -1.00, 646.1, 486.6)"></text><text xml:space="preserve" font-family="Consolas,Consolas" font-size="48.0" fill="#504460" transform="matrix(1.00, 0.00, -0.00, -1.00, 646.1, 486.6)"> </text><text xml:space="preserve" font-family="Consolas,Consolas" font-size="48.0" fill="#504460" transform="matrix(1.00, 0.00, -0.00, -1.00, 672.5, 486.6)"> </text><text xml:space="preserve" font-family="Consolas,Consolas" font-size="48.0" fill="#504460" transform="matrix(1.00, 0.00, -0.00, -1.00, 698.9, 486.6)">@</text><text xml:space="preserve" font-family="Consolas,Consolas" font-size="48.0" fill="#504460" transform="matrix(1.00, 0.00, -0.00, -1.00, 725.2, 486.6)">&gt;</text><text xml:space="preserve" font-family="Consolas,Consolas" font-size="48.0" fill="#504460" transform="matrix(1.00, 0.00, -0.00, -1.00, 751.6, 486.6)">	</text><text xml:space="preserve" font-family="Consolas,Consolas" font-size="48.0" fill="#504460" transform="matrix(1.00, 0.00, -0.00, -1.00, 779.6, 486.6)"></text><text xml:space="preserve" font-family="Consolas,Consolas" font-size="48.0" fill="#504460" transform="matrix(1.00, 0.00, -0.00, -1.00, 779.6, 486.6)"> </text><text xml:space="preserve" font-family="Consolas,Consolas" font-size="48.0" fill="#504460" transform="matrix(1.00, 0.00, -0.00, -1.00, 806.0, 486.6)"> </text><text xml:space="preserve" font-family="Consolas,Consolas" font-size="48.0" fill="#504460" transform="matrix(1.00, 0.00, -0.00, -1.00, 832.4, 486.6)">'</text><text xml:space="preserve" font-family="Consolas,Consolas" font-size="48.0" fill="#504460" transform="matrix(1.00, 0.00, -0.00, -1.00, 858.8, 486.6)">{</text><text xml:space="preserve" font-family="Consolas,Consolas" font-size="48.0" fill="#504460" transform="matrix(1.00, 0.00, -0.00, -1.00, 885.1, 486.6)">"</text><text xml:space="preserve" font-family="Consolas,Consolas" font-size="48.0" fill="#504460" transform="matrix(1.00, 0.00, -0.00, -1.00, 911.5, 486.6)">a</text><text xml:space="preserve" font-family="Consolas,Consolas" font-size="48.0" fill="#504460" transform="matrix(1.00, 0.00, -0.00, -1.00, 937.9, 486.6)">"</text><text xml:space="preserve" font-family="Consolas,Consolas" font-size="48.0" fill="#504460" transform="matrix(1.00, 0.00, -0.00, -1.00, 964.3, 486.6)">:</text><text xml:space="preserve" font-family="Consolas,Consolas" font-size="48.0" fill="#504460" transform="matrix(1.00, 0.00, -0.00, -1.00, 990.7, 486.6)">1</text><text xml:space="preserve" font-family="Consolas,Consolas" font-size="48.0" fill="#504460" transform="matrix(1.00, 0.00, -0.00, -1.00, 1017.0, 486.6)">,</text><text xml:space="preserve" font-family="Consolas,Consolas" font-size="48.0" fill="#504460" transform="matrix(1.00, 0.00, -0.00, -1.00, 1043.4, 486.6)">	</text><text xml:space="preserve" font-family="Consolas,Consolas" font-size="48.0" fill="#504460" transform="matrix(1.00, 0.00, -0.00, -1.00, 1071.4, 486.6)"></text><text xml:space="preserve" font-family="Consolas,Consolas" font-size="48.0" fill="#504460" transform="matrix(1.00, 0.00, -0.00, -1.00, 1071.4, 486.6)"> </text><text xml:space="preserve" font-family="Consolas,Consolas" font-size="48.0" fill="#504460" transform="matrix(1.00, 0.00, -0.00, -1.00, 1097.8, 486.6)"> </text><text xml:space="preserve" font-family="Consolas,Consolas" font-size="48.0" fill="#504460" transform="matrix(1.00, 0.00, -0.00, -1.00, 1124.2, 486.6)">"</text><text xml:space="preserve" font-family="Consolas,Consolas" font-size="48.0" fill="#504460" transform="matrix(1.00, 0.00, -0.00, -1.00, 1150.6, 486.6)">b</text><text xml:space="preserve" font-family="Consolas,Consolas" font-size="48.0" fill="#504460" transform="matrix(1.00, 0.00, -0.00, -1.00, 1177.0, 486.6)">"</text><text xml:space="preserve" font-family="Consolas,Consolas" font-size="48.0" fill="#504460" transform="matrix(1.00, 0.00, -0.00, -1.00, 1203.3, 486.6)">:</text><text xml:space="preserve" font-family="Consolas,Consolas" font-size="48.0" fill="#504460" transform="matrix(1.00, 0.00, -0.00, -1.00, 1229.7, 486.6)">2</text><text xml:space="preserve" font-family="Consolas,Consolas" font-size="48.0" fill="#504460" transform="matrix(1.00, 0.00, -0.00, -1.00, 1256.1, 486.6)">}</text><text xml:space="preserve" font-family="Consolas,Consolas" font-size="48.0" fill="#504460" transform="matrix(1.00, 0.00, -0.00, -1.00, 1282.5, 486.6)">'</text><text xml:space="preserve" font-family="Consolas,Consolas" font-size="48.0" fill="#504460" transform="matrix(1.00, 0.00, -0.00, -1.00, 1308.9, 486.6)">:</text><text xml:space="preserve" font-family="Consolas,Consolas" font-size="48.0" fill="#504460" transform="matrix(1.00, 0.00, -0.00, -1.00, 1335.2, 486.6)">:</text><text xml:space="preserve" font-family="Consolas,Consolas" font-size="48.0" fill="#504460" transform="matrix(1.00, 0.00, -0.00, -1.00, 1361.6, 486.6)">j</text><text xml:space="preserve" font-family="Consolas,Consolas" font-size="48.0" fill="#504460" transform="matrix(1.00, 0.00, -0.00, -1.00, 1388.0, 486.6)">s</text><text xml:space="preserve" font-family="Consolas,Consolas" font-size="48.0" fill="#504460" transform="matrix(1.00, 0.00, -0.00, -1.00, 1414.4, 486.6)">o</text><text xml:space="preserve" font-family="Consolas,Consolas" font-size="48.0" fill="#504460" transform="matrix(1.00, 0.00, -0.00, -1.00, 1440.8, 486.6)">n</text><text xml:space="preserve" font-family="Consolas,Consolas" font-size="48.0" fill="#504460" transform="matrix(1.00, 0.00, -0.00, -1.00, 1467.1, 486.6)">b</text><text xml:space="preserve" font-family="Consolas,Consolas" font-size="48.0" fill="#504460" transform="matrix(1.00, 0.00, -0.00, -1.00, 1493.5, 486.6)">	</text><text xml:space="preserve" font-family="Consolas,Consolas" font-size="48.0" fill="#504460" transform="matrix(1.00, 0.00, -0.00, -1.00, 1521.5, 486.6)"></text><text xml:space="preserve" font-family="Consolas,Consolas" font-size="48.0" fill="#504460" transform="matrix(1.00, 0.00, -0.00, -1.00, 1521.5, 486.6)"> </text><text xml:space="preserve" font-family="Consolas,Consolas" font-size="48.0" fill="#504460" transform="matrix(1.00, 0.00, -0.00, -1.00, 1547.9, 486.6)"> </text><text xml:space="preserve" font-family="Monaco,Monaco" font-size="48.0" fill="#504460" transform="matrix(1.00, 0.00, -0.00, -1.00, 1302.8, 486.6)"> </text><text xml:space="preserve" font-family="Consolas,Consolas" font-size="48.0" fill="#504460" transform="matrix(1.00, 0.00, -0.00, -1.00, 168.0, 430.6)">F</text><text xml:space="preserve" font-family="Consolas,Consolas" font-size="48.0" fill="#504460" transform="matrix(1.00, 0.00, -0.00, -1.00, 194.4, 430.6)">R</text><text xml:space="preserve" font-family="Consolas,Consolas" font-size="48.0" fill="#504460" transform="matrix(1.00, 0.00, -0.00, -1.00, 220.8, 430.6)">O</text><text xml:space="preserve" font-family="Consolas,Consolas" font-size="48.0" fill="#504460" transform="matrix(1.00, 0.00, -0.00, -1.00, 247.1, 430.6)">M</text><text xml:space="preserve" font-family="Consolas,Consolas" font-size="48.0" fill="#504460" transform="matrix(1.00, 0.00, -0.00, -1.00, 273.5, 430.6)">	</text><text xml:space="preserve" font-family="Consolas,Consolas" font-size="48.0" fill="#504460" transform="matrix(1.00, 0.00, -0.00, -1.00, 301.5, 430.6)"></text><text xml:space="preserve" font-family="Consolas,Consolas" font-size="48.0" fill="#504460" transform="matrix(1.00, 0.00, -0.00, -1.00, 301.5, 430.6)"> </text><text xml:space="preserve" font-family="Consolas,Consolas" font-size="48.0" fill="#504460" transform="matrix(1.00, 0.00, -0.00, -1.00, 327.9, 430.6)"> </text><text xml:space="preserve" font-family="Consolas,Consolas" font-size="48.0" fill="#504460" transform="matrix(1.00, 0.00, -0.00, -1.00, 354.3, 430.6)">m</text><text xml:space="preserve" font-family="Consolas,Consolas" font-size="48.0" fill="#504460" transform="matrix(1.00, 0.00, -0.00, -1.00, 380.7, 430.6)">y</text><text xml:space="preserve" font-family="Consolas,Consolas" font-size="48.0" fill="#504460" transform="matrix(1.00, 0.00, -0.00, -1.00, 407.0, 430.6)">_</text><text xml:space="preserve" font-family="Consolas,Consolas" font-size="48.0" fill="#504460" transform="matrix(1.00, 0.00, -0.00, -1.00, 433.4, 430.6)">r</text><text xml:space="preserve" font-family="Consolas,Consolas" font-size="48.0" fill="#504460" transform="matrix(1.00, 0.00, -0.00, -1.00, 459.8, 430.6)">a</text><text xml:space="preserve" font-family="Consolas,Consolas" font-size="48.0" fill="#504460" transform="matrix(1.00, 0.00, -0.00, -1.00, 486.2, 430.6)">w</text><text xml:space="preserve" font-family="Consolas,Consolas" font-size="48.0" fill="#504460" transform="matrix(1.00, 0.00, -0.00, -1.00, 512.6, 430.6)">_</text><text xml:space="preserve" font-family="Consolas,Consolas" font-size="48.0" fill="#504460" transform="matrix(1.00, 0.00, -0.00, -1.00, 539.0, 430.6)">a</text><text xml:space="preserve" font-family="Consolas,Consolas" font-size="48.0" fill="#504460" transform="matrix(1.00, 0.00, -0.00, -1.00, 565.3, 430.6)">p</text><text xml:space="preserve" font-family="Consolas,Consolas" font-size="48.0" fill="#504460" transform="matrix(1.00, 0.00, -0.00, -1.00, 591.7, 430.6)">i</text><text xml:space="preserve" font-family="Consolas,Consolas" font-size="48.0" fill="#504460" transform="matrix(1.00, 0.00, -0.00, -1.00, 618.1, 430.6)">_</text><text xml:space="preserve" font-family="Consolas,Consolas" font-size="48.0" fill="#504460" transform="matrix(1.00, 0.00, -0.00, -1.00, 644.5, 430.6)">d</text><text xml:space="preserve" font-family="Consolas,Consolas" font-size="48.0" fill="#504460" transform="matrix(1.00, 0.00, -0.00, -1.00, 670.9, 430.6)">a</text><text xml:space="preserve" font-family="Consolas,Consolas" font-size="48.0" fill="#504460" transform="matrix(1.00, 0.00, -0.00, -1.00, 697.2, 430.6)">t</text><text xml:space="preserve" font-family="Consolas,Consolas" font-size="48.0" fill="#504460" transform="matrix(1.00, 0.00, -0.00, -1.00, 723.6, 430.6)">a</text><text xml:space="preserve" font-family="Consolas,Consolas" font-size="48.0" fill="#504460" transform="matrix(1.00, 0.00, -0.00, -1.00, 750.0, 430.6)">;</text><text xml:space="preserve" font-family="Monaco,Monaco" font-size="48.0" fill="#504460" transform="matrix(1.00, 0.00, -0.00, -1.00, 722.2, 430.6)"> </text><text xml:space="preserve" font-family="Monaco,Monaco" font-size="48.0" fill="#504460" transform="matrix(1.00, 0.00, -0.00, -1.00, 168.0, 374.6)"> </text><text xml:space="preserve" font-family="Consolas,Consolas" font-size="48.0" fill="#504460" transform="matrix(1.00, 0.00, -0.00, -1.00, 168.0, 318.6)">S</text><text xml:space="preserve" font-family="Consolas,Consolas" font-size="48.0" fill="#504460" transform="matrix(1.00, 0.00, -0.00, -1.00, 194.4, 318.6)">E</text><text xml:space="preserve" font-family="Consolas,Consolas" font-size="48.0" fill="#504460" transform="matrix(1.00, 0.00, -0.00, -1.00, 220.8, 318.6)">L</text><text xml:space="preserve" font-family="Consolas,Consolas" font-size="48.0" fill="#504460" transform="matrix(1.00, 0.00, -0.00, -1.00, 247.1, 318.6)">E</text><text xml:space="preserve" font-family="Consolas,Consolas" font-size="48.0" fill="#504460" transform="matrix(1.00, 0.00, -0.00, -1.00, 273.5, 318.6)">C</text><text xml:space="preserve" font-family="Consolas,Consolas" font-size="48.0" fill="#504460" transform="matrix(1.00, 0.00, -0.00, -1.00, 299.9, 318.6)">T</text><text xml:space="preserve" font-family="Consolas,Consolas" font-size="48.0" fill="#504460" transform="matrix(1.00, 0.00, -0.00, -1.00, 326.3, 318.6)">	</text><text xml:space="preserve" font-family="Consolas,Consolas" font-size="48.0" fill="#504460" transform="matrix(1.00, 0.00, -0.00, -1.00, 354.3, 318.6)"></text><text xml:space="preserve" font-family="Consolas,Consolas" font-size="48.0" fill="#504460" transform="matrix(1.00, 0.00, -0.00, -1.00, 354.3, 318.6)"> </text><text xml:space="preserve" font-family="Consolas,Consolas" font-size="48.0" fill="#504460" transform="matrix(1.00, 0.00, -0.00, -1.00, 380.7, 318.6)"> </text><text xml:space="preserve" font-family="Consolas,Consolas" font-size="48.0" fill="#504460" transform="matrix(1.00, 0.00, -0.00, -1.00, 407.0, 318.6)">'</text><text xml:space="preserve" font-family="Consolas,Consolas" font-size="48.0" fill="#504460" transform="matrix(1.00, 0.00, -0.00, -1.00, 433.4, 318.6)">{</text><text xml:space="preserve" font-family="Consolas,Consolas" font-size="48.0" fill="#504460" transform="matrix(1.00, 0.00, -0.00, -1.00, 459.8, 318.6)">"</text><text xml:space="preserve" font-family="Consolas,Consolas" font-size="48.0" fill="#504460" transform="matrix(1.00, 0.00, -0.00, -1.00, 486.2, 318.6)">a</text><text xml:space="preserve" font-family="Consolas,Consolas" font-size="48.0" fill="#504460" transform="matrix(1.00, 0.00, -0.00, -1.00, 512.6, 318.6)">"</text><text xml:space="preserve" font-family="Consolas,Consolas" font-size="48.0" fill="#504460" transform="matrix(1.00, 0.00, -0.00, -1.00, 539.0, 318.6)">:</text><text xml:space="preserve" font-family="Consolas,Consolas" font-size="48.0" fill="#504460" transform="matrix(1.00, 0.00, -0.00, -1.00, 565.3, 318.6)">1</text><text xml:space="preserve" font-family="Consolas,Consolas" font-size="48.0" fill="#504460" transform="matrix(1.00, 0.00, -0.00, -1.00, 591.7, 318.6)">,</text><text xml:space="preserve" font-family="Consolas,Consolas" font-size="48.0" fill="#504460" transform="matrix(1.00, 0.00, -0.00, -1.00, 618.1, 318.6)">	</text><text xml:space="preserve" font-family="Consolas,Consolas" font-size="48.0" fill="#504460" transform="matrix(1.00, 0.00, -0.00, -1.00, 646.1, 318.6)"></text><text xml:space="preserve" font-family="Consolas,Consolas" font-size="48.0" fill="#504460" transform="matrix(1.00, 0.00, -0.00, -1.00, 646.1, 318.6)"> </text><text xml:space="preserve" font-family="Consolas,Consolas" font-size="48.0" fill="#504460" transform="matrix(1.00, 0.00, -0.00, -1.00, 672.5, 318.6)"> </text><text xml:space="preserve" font-family="Consolas,Consolas" font-size="48.0" fill="#504460" transform="matrix(1.00, 0.00, -0.00, -1.00, 698.9, 318.6)">"</text><text xml:space="preserve" font-family="Consolas,Consolas" font-size="48.0" fill="#504460" transform="matrix(1.00, 0.00, -0.00, -1.00, 725.2, 318.6)">b</text><text xml:space="preserve" font-family="Consolas,Consolas" font-size="48.0" fill="#504460" transform="matrix(1.00, 0.00, -0.00, -1.00, 751.6, 318.6)">"</text><text xml:space="preserve" font-family="Consolas,Consolas" font-size="48.0" fill="#504460" transform="matrix(1.00, 0.00, -0.00, -1.00, 778.0, 318.6)">:</text><text xml:space="preserve" font-family="Consolas,Consolas" font-size="48.0" fill="#504460" transform="matrix(1.00, 0.00, -0.00, -1.00, 804.4, 318.6)">2</text><text xml:space="preserve" font-family="Consolas,Consolas" font-size="48.0" fill="#504460" transform="matrix(1.00, 0.00, -0.00, -1.00, 830.8, 318.6)">}</text><text xml:space="preserve" font-family="Consolas,Consolas" font-size="48.0" fill="#504460" transform="matrix(1.00, 0.00, -0.00, -1.00, 857.1, 318.6)">'</text><text xml:space="preserve" font-family="Consolas,Consolas" font-size="48.0" fill="#504460" transform="matrix(1.00, 0.00, -0.00, -1.00, 883.5, 318.6)">:</text><text xml:space="preserve" font-family="Consolas,Consolas" font-size="48.0" fill="#504460" transform="matrix(1.00, 0.00, -0.00, -1.00, 909.9, 318.6)">:</text><text xml:space="preserve" font-family="Consolas,Consolas" font-size="48.0" fill="#504460" transform="matrix(1.00, 0.00, -0.00, -1.00, 936.3, 318.6)">j</text><text xml:space="preserve" font-family="Consolas,Consolas" font-size="48.0" fill="#504460" transform="matrix(1.00, 0.00, -0.00, -1.00, 962.7, 318.6)">s</text><text xml:space="preserve" font-family="Consolas,Consolas" font-size="48.0" fill="#504460" transform="matrix(1.00, 0.00, -0.00, -1.00, 989.0, 318.6)">o</text><text xml:space="preserve" font-family="Consolas,Consolas" font-size="48.0" fill="#504460" transform="matrix(1.00, 0.00, -0.00, -1.00, 1015.4, 318.6)">n</text><text xml:space="preserve" font-family="Consolas,Consolas" font-size="48.0" fill="#504460" transform="matrix(1.00, 0.00, -0.00, -1.00, 1041.8, 318.6)">b</text><text xml:space="preserve" font-family="Consolas,Consolas" font-size="48.0" fill="#504460" transform="matrix(1.00, 0.00, -0.00, -1.00, 959.7, 318.6)">	</text><text xml:space="preserve" font-family="Consolas,Consolas" font-size="48.0" fill="#504460" transform="matrix(1.00, 0.00, -0.00, -1.00, 987.7, 318.6)"></text><text xml:space="preserve" font-family="Consolas,Consolas" font-size="48.0" fill="#504460" transform="matrix(1.00, 0.00, -0.00, -1.00, 987.7, 318.6)"> </text><text xml:space="preserve" font-family="Consolas,Consolas" font-size="48.0" fill="#504460" transform="matrix(1.00, 0.00, -0.00, -1.00, 1014.1, 318.6)"> </text><text xml:space="preserve" font-family="Consolas,Consolas" font-size="48.0" fill="#504460" transform="matrix(1.00, 0.00, -0.00, -1.00, 1040.5, 318.6)">&lt;</text><text xml:space="preserve" font-family="Consolas,Consolas" font-size="48.0" fill="#504460" transform="matrix(1.00, 0.00, -0.00, -1.00, 1066.9, 318.6)">@</text><text xml:space="preserve" font-family="Consolas,Consolas" font-size="48.0" fill="#504460" transform="matrix(1.00, 0.00, -0.00, -1.00, 1093.2, 318.6)">	</text><text xml:space="preserve" font-family="Consolas,Consolas" font-size="48.0" fill="#504460" transform="matrix(1.00, 0.00, -0.00, -1.00, 1121.2, 318.6)"></text><text xml:space="preserve" font-family="Consolas,Consolas" font-size="48.0" fill="#504460" transform="matrix(1.00, 0.00, -0.00, -1.00, 1121.2, 318.6)"> </text><text xml:space="preserve" font-family="Consolas,Consolas" font-size="48.0" fill="#504460" transform="matrix(1.00, 0.00, -0.00, -1.00, 1147.6, 318.6)"> </text><text xml:space="preserve" font-family="Consolas,Consolas" font-size="48.0" fill="#504460" transform="matrix(1.00, 0.00, -0.00, -1.00, 1174.0, 318.6)">r</text><text xml:space="preserve" font-family="Consolas,Consolas" font-size="48.0" fill="#504460" transform="matrix(1.00, 0.00, -0.00, -1.00, 1200.4, 318.6)">e</text><text xml:space="preserve" font-family="Consolas,Consolas" font-size="48.0" fill="#504460" transform="matrix(1.00, 0.00, -0.00, -1.00, 1226.8, 318.6)">s</text><text xml:space="preserve" font-family="Consolas,Consolas" font-size="48.0" fill="#504460" transform="matrix(1.00, 0.00, -0.00, -1.00, 1253.1, 318.6)">p</text><text xml:space="preserve" font-family="Consolas,Consolas" font-size="48.0" fill="#504460" transform="matrix(1.00, 0.00, -0.00, -1.00, 1279.5, 318.6)">o</text><text xml:space="preserve" font-family="Consolas,Consolas" font-size="48.0" fill="#504460" transform="matrix(1.00, 0.00, -0.00, -1.00, 1305.9, 318.6)">n</text><text xml:space="preserve" font-family="Consolas,Consolas" font-size="48.0" fill="#504460" transform="matrix(1.00, 0.00, -0.00, -1.00, 1332.3, 318.6)">s</text><text xml:space="preserve" font-family="Consolas,Consolas" font-size="48.0" fill="#504460" transform="matrix(1.00, 0.00, -0.00, -1.00, 1358.7, 318.6)">e</text><text xml:space="preserve" font-family="Monaco,Monaco" font-size="48.0" fill="#504460" transform="matrix(1.00, 0.00, -0.00, -1.00, 1276.4, 318.6)"> </text><text xml:space="preserve" font-family="Consolas,Consolas" font-size="48.0" fill="#504460" transform="matrix(1.00, 0.00, -0.00, -1.00, 168.0, 262.6)">F</text><text xml:space="preserve" font-family="Consolas,Consolas" font-size="48.0" fill="#504460" transform="matrix(1.00, 0.00, -0.00, -1.00, 194.4, 262.6)">R</text><text xml:space="preserve" font-family="Consolas,Consolas" font-size="48.0" fill="#504460" transform="matrix(1.00, 0.00, -0.00, -1.00, 220.8, 262.6)">O</text><text xml:space="preserve" font-family="Consolas,Consolas" font-size="48.0" fill="#504460" transform="matrix(1.00, 0.00, -0.00, -1.00, 247.1, 262.6)">M</text><text xml:space="preserve" font-family="Consolas,Consolas" font-size="48.0" fill="#504460" transform="matrix(1.00, 0.00, -0.00, -1.00, 273.5, 262.6)">	</text><text xml:space="preserve" font-family="Consolas,Consolas" font-size="48.0" fill="#504460" transform="matrix(1.00, 0.00, -0.00, -1.00, 301.5, 262.6)"></text><text xml:space="preserve" font-family="Consolas,Consolas" font-size="48.0" fill="#504460" transform="matrix(1.00, 0.00, -0.00, -1.00, 301.5, 262.6)"> </text><text xml:space="preserve" font-family="Consolas,Consolas" font-size="48.0" fill="#504460" transform="matrix(1.00, 0.00, -0.00, -1.00, 327.9, 262.6)"> </text><text xml:space="preserve" font-family="Consolas,Consolas" font-size="48.0" fill="#504460" transform="matrix(1.00, 0.00, -0.00, -1.00, 354.3, 262.6)">m</text><text xml:space="preserve" font-family="Consolas,Consolas" font-size="48.0" fill="#504460" transform="matrix(1.00, 0.00, -0.00, -1.00, 380.7, 262.6)">y</text><text xml:space="preserve" font-family="Consolas,Consolas" font-size="48.0" fill="#504460" transform="matrix(1.00, 0.00, -0.00, -1.00, 407.0, 262.6)">_</text><text xml:space="preserve" font-family="Consolas,Consolas" font-size="48.0" fill="#504460" transform="matrix(1.00, 0.00, -0.00, -1.00, 433.4, 262.6)">r</text><text xml:space="preserve" font-family="Consolas,Consolas" font-size="48.0" fill="#504460" transform="matrix(1.00, 0.00, -0.00, -1.00, 459.8, 262.6)">a</text><text xml:space="preserve" font-family="Consolas,Consolas" font-size="48.0" fill="#504460" transform="matrix(1.00, 0.00, -0.00, -1.00, 486.2, 262.6)">w</text><text xml:space="preserve" font-family="Consolas,Consolas" font-size="48.0" fill="#504460" transform="matrix(1.00, 0.00, -0.00, -1.00, 512.6, 262.6)">_</text><text xml:space="preserve" font-family="Consolas,Consolas" font-size="48.0" fill="#504460" transform="matrix(1.00, 0.00, -0.00, -1.00, 539.0, 262.6)">a</text><text xml:space="preserve" font-family="Consolas,Consolas" font-size="48.0" fill="#504460" transform="matrix(1.00, 0.00, -0.00, -1.00, 565.3, 262.6)">p</text><text xml:space="preserve" font-family="Consolas,Consolas" font-size="48.0" fill="#504460" transform="matrix(1.00, 0.00, -0.00, -1.00, 591.7, 262.6)">i</text><text xml:space="preserve" font-family="Consolas,Consolas" font-size="48.0" fill="#504460" transform="matrix(1.00, 0.00, -0.00, -1.00, 618.1, 262.6)">_</text><text xml:space="preserve" font-family="Consolas,Consolas" font-size="48.0" fill="#504460" transform="matrix(1.00, 0.00, -0.00, -1.00, 644.5, 262.6)">d</text><text xml:space="preserve" font-family="Consolas,Consolas" font-size="48.0" fill="#504460" transform="matrix(1.00, 0.00, -0.00, -1.00, 670.9, 262.6)">a</text><text xml:space="preserve" font-family="Consolas,Consolas" font-size="48.0" fill="#504460" transform="matrix(1.00, 0.00, -0.00, -1.00, 697.2, 262.6)">t</text><text xml:space="preserve" font-family="Consolas,Consolas" font-size="48.0" fill="#504460" transform="matrix(1.00, 0.00, -0.00, -1.00, 723.6, 262.6)">a</text><text xml:space="preserve" font-family="Consolas,Consolas" font-size="48.0" fill="#504460" transform="matrix(1.00, 0.00, -0.00, -1.00, 750.0, 262.6)">;</text><text xml:space="preserve" font-family="Monaco,Monaco" font-size="48.0" fill="#504460" transform="matrix(1.00, 0.00, -0.00, -1.00, 722.2, 262.6)"> </text></g></svg>